<svg width="19" height="18" viewBox="0 0 19 18" fill="none" xmlns="http://www.w3.org/2000/svg">
<path d="M0.566739 2.72594C0.416704 2.58199 0.296922 2.40953 0.214413 2.21867C0.131904 2.02782 0.0883298 1.82241 0.0862452 1.61449C0.0841607 1.40658 0.12361 1.20034 0.202276 1.00787C0.280943 0.8154 0.397245 0.640573 0.544363 0.49364C0.691481 0.346707 0.866455 0.230625 1.05902 0.152202C1.25159 0.0737779 1.45788 0.0345904 1.66579 0.0369369C1.87371 0.0392834 2.07906 0.0831168 2.26981 0.165867C2.46056 0.248617 2.63287 0.368618 2.77663 0.518834L3.38739 1.13008C4.69703 0.303812 6.24911 -0.051591 7.78781 0.12245C9.32651 0.296491 10.76 0.989588 11.852 2.08751L14.7078 4.94666L17.5078 4.94779C17.6405 4.94785 17.7676 5.00058 17.8613 5.09438C17.9551 5.18819 18.0077 5.31539 18.0076 5.448C17.9975 8.46164 16.7994 11.3497 14.6734 13.4856L13.5269 14.6322C12.471 15.688 11.2173 16.5254 9.83746 17.0964C8.45766 17.6674 6.97885 17.9608 5.48558 17.9599C5.35297 17.9599 5.22581 17.9071 5.13208 17.8133C5.03835 17.7195 4.98573 17.5923 4.98578 17.4597L4.98691 14.6637L2.13007 11.8046C1.49081 11.1688 0.984818 10.4118 0.641735 9.57801C0.298653 8.74422 0.125369 7.85036 0.132032 6.94876C0.1277 5.6683 0.491645 4.41359 1.18049 3.33419L0.566739 2.72594Z" fill="white"/>
</svg>
