<svg width="29" height="29" viewBox="0 0 29 29" fill="none" xmlns="http://www.w3.org/2000/svg">
<mask id="mask0" mask-type="alpha" maskUnits="userSpaceOnUse" x="0" y="0" width="29" height="29">
<rect width="28" height="28" transform="matrix(-1 -0.000404588 -0.000404588 1 28.0114 0.0455322)" fill="#C4C4C4"/>
</mask>
<g mask="url(#mask0)">
<path d="M5.56674 6.72594C5.4167 6.58199 5.29692 6.40953 5.21441 6.21867C5.1319 6.02782 5.08833 5.82241 5.08625 5.61449C5.08416 5.40658 5.12361 5.20034 5.20228 5.00787C5.28094 4.8154 5.39725 4.64057 5.54436 4.49364C5.69148 4.34671 5.86645 4.23063 6.05902 4.1522C6.25159 4.07378 6.45788 4.03459 6.66579 4.03694C6.87371 4.03928 7.07906 4.08312 7.26981 4.16587C7.46056 4.24862 7.63287 4.36862 7.77663 4.51883L8.38739 5.13008C9.69703 4.30381 11.2491 3.94841 12.7878 4.12245C14.3265 4.29649 15.76 4.98959 16.852 6.08751L19.7078 8.94666L22.5078 8.94779C22.6405 8.94785 22.7676 9.00058 22.8613 9.09438C22.9551 9.18819 23.0077 9.31539 23.0076 9.448C22.9975 12.4616 21.7994 15.3497 19.6734 17.4856L18.5269 18.6322C17.471 19.688 16.2173 20.5254 14.8375 21.0964C13.4577 21.6674 11.9789 21.9608 10.4856 21.9599C10.353 21.9599 10.2258 21.9071 10.1321 21.8133C10.0384 21.7195 9.98573 21.5923 9.98578 21.4597L9.98691 18.6637L7.13007 15.8046C6.49081 15.1688 5.98482 14.4118 5.64174 13.578C5.29865 12.7442 5.12537 11.8504 5.13203 10.9488C5.1277 9.6683 5.49165 8.41359 6.18049 7.33419L5.56674 6.72594Z" fill="white"/>
<path d="M19.2318 19.3394L19.2978 19.2735C19.5726 19.9671 19.5915 20.7358 19.3513 21.4421C19.1111 22.1484 18.6275 22.7462 17.9869 23.1285C17.3463 23.5108 16.5905 23.6528 15.8549 23.5289C15.1192 23.405 14.4516 23.0234 13.9716 22.4523C14.2256 22.3774 14.4796 22.3025 14.7297 22.2106C16.4229 21.5956 17.96 20.6153 19.2318 19.3394Z" fill="white"/>
</g>
</svg>
