<svg width="19" height="20" viewBox="0 0 19 20" fill="none" xmlns="http://www.w3.org/2000/svg">
<path d="M3.01777 19.413H15.9822C16.6269 19.413 17.2452 19.1544 17.7011 18.6941C18.1569 18.2337 18.413 17.6093 18.413 16.9583V5.09372C18.413 4.44269 18.1569 3.81831 17.7011 3.35796C17.2452 2.89761 16.6269 2.63898 15.9822 2.63898H14.3616V1.51389C14.3616 1.29688 14.2763 1.08876 14.1243 0.935307C13.9724 0.781856 13.7663 0.695648 13.5514 0.695648C13.3365 0.695648 13.1304 0.781856 12.9784 0.935307C12.8265 1.08876 12.7411 1.29688 12.7411 1.51389V2.63898H6.25888V1.51389C6.25888 1.29688 6.17351 1.08876 6.02156 0.935307C5.8696 0.781856 5.6635 0.695648 5.4486 0.695648C5.23371 0.695648 5.02761 0.781856 4.87565 0.935307C4.7237 1.08876 4.63833 1.29688 4.63833 1.51389V2.63898H3.01777C2.37308 2.63898 1.75479 2.89761 1.29892 3.35796C0.843049 3.81831 0.586945 4.44269 0.586945 5.09372V16.9583C0.586945 17.6093 0.843049 18.2337 1.29892 18.6941C1.75479 19.1544 2.37308 19.413 3.01777 19.413ZM15.9822 17.7765H3.01777C2.80288 17.7765 2.59678 17.6903 2.44482 17.5369C2.29287 17.3834 2.2075 17.1753 2.2075 16.9583V10.2078H16.7925V16.9583C16.7925 17.1753 16.7071 17.3834 16.5552 17.5369C16.4032 17.6903 16.1971 17.7765 15.9822 17.7765ZM3.01777 4.27548H4.63833V5.196C4.63833 5.41302 4.7237 5.62114 4.87565 5.77459C5.02761 5.92804 5.23371 6.01425 5.4486 6.01425C5.6635 6.01425 5.8696 5.92804 6.02156 5.77459C6.17351 5.62114 6.25888 5.41302 6.25888 5.196V4.27548H12.7411V5.196C12.7411 5.41302 12.8265 5.62114 12.9784 5.77459C13.1304 5.92804 13.3365 6.01425 13.5514 6.01425C13.7663 6.01425 13.9724 5.92804 14.1243 5.77459C14.2763 5.62114 14.3616 5.41302 14.3616 5.196V4.27548H15.9822C16.1971 4.27548 16.4032 4.36169 16.5552 4.51514C16.7071 4.66859 16.7925 4.87671 16.7925 5.09372V8.57127H2.2075V5.09372C2.2075 4.87671 2.29287 4.66859 2.44482 4.51514C2.59678 4.36169 2.80288 4.27548 3.01777 4.27548Z" fill="#161B46"/>
</svg>
