<svg width="30" height="54" viewBox="0 0 30 54" fill="none" xmlns="http://www.w3.org/2000/svg">
<path fill-rule="evenodd" clip-rule="evenodd" d="M18.9051 41.0661C18.7036 40.9676 18.565 40.7707 18.4391 40.5615C17.4441 38.8387 17.3937 36.4881 17.041 34.1869C17.4945 34.5191 18.3131 34.9499 19.0562 34.6545C17.6834 33.5962 16.6506 31.8241 17.041 29.3505C15.6682 28.1199 13.9427 26.8154 13.0736 25.0556C12.7713 24.4649 12.4565 23.665 12.7084 22.9389C13.4011 24.9695 14.585 26.2616 16.1216 27.6399C17.7464 29.1044 19.6608 30.6181 19.3711 33.8054C19.7993 33.5962 19.8623 32.9686 19.9001 32.4886C20.215 28.4398 17.0536 26.9016 15.0384 25.0556C14.3835 24.4772 13.7286 23.7511 13.5396 22.8897C14.1946 23.2958 14.8495 24.0711 15.7689 24.6003C17.2174 25.4617 19.157 25.7325 20.5802 24.9079C20.9833 24.6618 21.5501 24.3911 21.613 23.948C20.1142 24.0219 18.9681 23.8127 17.8975 23.505C17.1796 23.2958 16.3735 23.062 15.9831 22.5943C17.2174 22.4836 18.2376 22.1636 18.565 21.1668C17.7715 21.1914 16.6758 21.3391 16.1342 20.9699C17.5826 20.7115 19.0436 20.49 19.3837 19.1363C18.3257 19.1732 17.2677 19.727 16.1846 19.3947C17.5574 18.8902 19.3837 18.804 19.6482 17.2165C18.5776 17.278 17.3559 18.1518 16.1846 17.9303C17.5952 17.2534 19.7364 17.0196 19.7112 15.0998C18.8547 15.1983 17.8597 16.0843 16.9529 15.9613C20.8069 13.6723 24.6484 10.7311 27.1926 6.86691C28.301 5.20556 30.3288 1.94439 28.3262 0C28.2758 0 28.2254 0 28.175 0C28.175 0.0738377 28.0995 0.0738377 28.1246 0.147675C27.8601 2.83045 26.84 5.31632 25.5805 7.22379C24.3713 9.09435 22.9103 10.7188 21.2478 12.0725C19.5474 13.4508 17.5322 14.546 15.8697 15.912C14.9377 16.6504 14.4591 17.438 14.0056 18.6317C13.5648 19.8008 13.061 20.8715 12.2046 21.4006C11.9149 21.5729 11.4866 21.8806 11.0584 21.6591C11.4111 21.2653 11.8015 21.1299 12.0408 20.8592C12.5068 20.3054 12.7839 19.3332 13.0862 18.3856C13.3759 17.4872 13.716 16.6504 14.1694 15.9243C15.7941 13.2662 19.2704 11.3833 21.4493 8.94667C22.5451 7.71604 23.792 6.19006 23.9305 4.2949C24.0565 2.76892 23.4141 2.14129 22.2806 1.87056C22.3561 2.38742 22.734 2.84275 22.6332 3.67958C22.4695 5.35324 21.084 7.19918 20.1142 8.38058C19.031 9.67274 17.7086 10.8049 16.3861 11.9125C15.1518 12.9585 13.6152 14.103 12.8091 15.6167C12.4313 16.3181 12.1038 17.4626 11.8771 18.2871C11.7511 18.7917 11.4866 20.7853 10.7561 20.7484C10.3279 20.7361 10.1264 19.8008 10.1264 19.124C10.1768 15.7151 13.4389 14.2138 14.5724 11.9617C14.6858 11.7525 14.8117 11.3341 14.8243 11.051C14.9503 9.88195 14.3205 9.47584 13.7915 8.97129C15.2903 9.16819 17.2552 9.06974 17.1544 7.55606C16.9025 7.64221 16.7514 7.91294 16.4239 8.0237C14.2449 8.71285 10.5294 5.45169 8.94245 7.35916C8.74093 7.45761 9.04321 7.76527 8.87948 7.8268C8.47644 7.8268 8.0608 7.81449 7.73333 7.86372C7.63257 7.58068 7.51922 7.30994 7.43105 7.01459C7.21694 7.10073 6.90206 7.07612 6.70054 7.16226C6.87687 7.38377 7.04061 7.59298 7.0658 7.97448C6.25972 8.18368 5.50402 8.45442 5.36547 9.34047C5.89446 9.16819 6.58719 8.88514 7.16656 8.93437C7.16656 9.30356 7.09099 9.61121 6.95244 9.83273C6.8139 9.99271 6.23453 9.74658 6.18415 9.9804C6.14636 10.3619 6.63757 10.2265 6.70054 10.485C6.5494 10.7926 6.37307 11.0757 6.13377 11.2849C5.37807 10.3988 4.45863 11.2479 3.65255 11.4448C3.46363 11.5187 3.29989 11.4448 3.13616 11.5679C3.7785 12.6509 4.97503 11.5802 5.91965 11.5187C5.64256 12.1094 4.24452 12.3063 4.01781 13.0324C3.84148 13.5615 4.09338 14.1892 4.84908 14.1892C4.66015 13.5369 5.5418 13.2785 5.73073 12.7739C5.7937 12.6016 5.66775 12.3678 5.73073 12.2201C5.83149 11.9617 6.14636 11.9986 6.2975 11.814C6.48643 13.2046 8.79131 13.1308 8.84169 11.6664C8.50163 11.8017 8.38827 12.0479 8.0734 12.0232C7.67036 11.974 7.36808 11.1864 6.62497 11.4695C6.93985 11.1495 7.11618 10.6819 7.44365 10.3496C8.66536 10.1896 10.5294 9.62352 11.008 10.9034C11.1214 11.1987 11.1088 11.7033 10.9451 12.0725C10.5924 12.9339 9.48404 13.7092 8.67796 14.3245C6.23453 16.2566 3.06059 18.3364 2.7709 22.1636C2.519 25.634 4.39566 27.6276 6.5494 28.8829C8.60239 30.0766 10.9073 30.618 13.6404 31.0611C14.1064 32.0456 14.2575 33.7439 13.7915 34.8514C14.3583 34.7407 14.6732 34.1253 15.0384 33.99C15.3029 35.9836 15.7689 37.7803 16.4239 39.3432C16.6506 39.8601 17.041 40.3277 17.041 40.9061C16.046 41.2138 13.9679 39.6509 13.6782 41.1522C12.7587 40.9307 12.0912 41.8168 12.7084 42.3213C13.0106 41.9768 13.3507 41.6691 14.0434 41.7183C13.59 41.9645 13.2122 42.949 14.1568 42.9736C14.2198 42.8259 14.2827 42.6536 14.4087 42.5182C15.2148 41.706 18.8925 41.7922 20.4039 42.1244C20.744 42.186 20.9959 42.6044 21.1722 42.6782C21.4493 42.4444 21.9153 42.2475 21.802 41.7306C21.5878 40.783 19.7364 41.4968 18.9051 41.0661ZM5.86927 39.8847C5.94484 39.3186 5.85668 38.5433 6.44864 38.1864C6.70054 38.0387 6.95244 38.1249 7.48143 38.0634C7.97264 38.0018 7.61998 37.325 8.17416 36.882C8.43865 36.6727 8.77872 36.6604 9.05581 36.5989C8.5646 36.119 7.96004 35.7498 7.27991 35.5529C7.24213 35.5529 7.20434 35.5652 7.17915 35.5775C6.48643 35.7621 5.7937 36.242 5.26471 36.8573C4.73572 37.4727 4.38306 38.211 4.35787 38.9248C4.33268 39.9708 5.0506 40.4754 5.86927 39.8847ZM7.10358 43.4781C7.14137 43.4535 7.19175 43.4289 7.22953 43.4043C7.63257 43.1212 7.51922 42.469 7.24213 42.149C6.8139 42.1244 6.22193 42.6413 5.25212 42.789C4.33268 42.9243 4.043 42.6659 3.2747 42.5428C4.01781 43.1951 5.00022 43.5889 6.08339 43.5889C6.43605 43.6135 6.77611 43.5643 7.10358 43.4781ZM9.37068 36.9435C9.14397 36.9804 8.94245 37.005 8.75353 37.0542C7.70814 37.3619 8.16156 38.211 8.70315 38.7648C9.76113 39.8355 9.42106 40.7584 9.76113 41.3614C9.79891 41.3368 9.8367 41.2999 9.87448 41.2507C10.139 40.7215 10.2775 40.1185 10.2775 39.4909C10.2901 38.531 9.95005 37.6449 9.37068 36.9435ZM9.42106 41.9891C9.47144 41.8045 9.44625 41.5706 9.39587 41.0661C9.29511 40.0447 8.60239 38.8879 7.87188 38.5556C7.36808 38.3218 6.58719 38.3095 6.47383 38.9248C6.3101 39.8478 6.59978 39.7985 7.0532 40.2539C7.51922 40.7092 7.35548 41.0907 7.51922 41.8291C7.58219 42.0998 7.77112 42.2229 7.83409 42.5551C7.87188 42.8259 7.78371 43.0474 7.72074 43.2812C8.38827 43.0105 8.98024 42.5552 9.42106 41.9891ZM1.90185 39.0356C2.0152 39.3678 2.34267 39.5647 3.0354 39.4786C4.59718 39.2817 3.36287 37.4727 6.18415 35.8113C6.36048 35.7129 6.65016 35.5898 6.77611 35.4298C6.5494 35.3929 6.32269 35.3806 6.09598 35.3806C3.91705 35.3929 2.12856 36.9804 1.90185 39.0356ZM4.86167 40.4508C4.24452 40.2416 4.26971 39.9585 3.90445 39.5524C3.5266 39.6632 3.31249 39.9093 2.84647 39.9093C2.35527 39.897 2.17894 39.6386 1.87666 39.5893C1.90185 40.4754 2.20413 41.2876 2.70793 41.9521C2.7835 42.0137 2.85907 42.0629 2.93464 42.0875C3.38806 42.2967 3.98002 42.4075 4.57199 42.4075C5.16395 42.4198 7.07839 42.186 7.07839 41.3984C7.07839 40.9923 6.71314 40.4139 6.37307 40.2785C5.97003 40.1308 5.5418 40.6846 4.86167 40.4508ZM18.0864 49.2744C18.0864 46.9362 19.5097 45.5087 21.676 45.5087C22.6962 45.5087 23.6534 45.7794 24.4091 46.3209L24.4217 44.6472C23.5275 44.438 22.734 44.3273 22.0287 44.3273C20.4795 44.3273 19.1822 44.7334 18.1494 45.521C16.9655 46.4316 16.3105 47.773 16.3105 49.3236C16.3105 50.8373 16.9403 52.1294 18.1116 52.9909C18.9933 53.6554 20.0638 54 21.2856 54C22.268 54 23.4015 53.7662 24.6106 53.3109L24.6484 51.711C23.6408 52.4617 22.6458 52.8309 21.5752 52.8309C19.4719 52.8309 18.0864 51.4526 18.0864 49.2744ZM2.35527 36.1928C2.7835 36.0451 4.33268 34.2361 7.25472 34.7776C10.1516 35.3067 10.1894 37.0912 10.7561 37.6696C11.1592 37.325 11.134 36.5989 10.8821 36.1313C10.668 35.7375 10.2649 35.4175 10.0004 34.9991C9.35809 34.0146 10.5042 32.464 11.0962 32.3286C11.2977 32.6117 11.4111 32.8455 11.7008 33.0916C11.9527 33.3008 12.5572 34.0269 12.998 34.1007L12.3683 31.381C11.7763 31.2703 10.5294 31.098 9.96265 30.8396C9.55961 30.655 9.25733 30.2981 8.85429 30.6673C8.67796 30.8273 8.0608 31.3072 7.99783 31.418C8.26232 31.5656 9.13138 31.541 9.5722 31.7625C9.45885 32.2917 8.47644 33.0178 7.94745 33.2516C7.12877 33.6208 6.07079 33.5962 5.11357 33.5346C4.30749 33.4854 3.36287 33.2516 2.90945 34.1623C2.7835 34.433 2.95983 34.5314 2.73312 34.8022C2.44343 35.1468 1.78849 35.4298 2.35527 36.1928ZM14.8243 46.5916C14.4717 46.1978 14.0308 45.9025 13.5396 45.7179C12.9099 45.4964 12.1542 45.3979 11.4363 45.4471C11.4111 46.4809 11.3985 47.5269 11.4111 48.5606L13.7286 47.6253L13.6656 50.0989C13.124 49.8282 12.2801 49.5451 11.3985 49.4959C11.3985 50.0005 11.3985 50.505 11.3985 50.9973C11.4237 51.9325 11.3859 52.9786 12.2046 53.6185C12.192 53.6923 12.1542 53.7539 12.1038 53.8154C11.9149 53.8277 11.7134 53.8277 11.537 53.8277V53.84H9.18176C9.19435 53.8031 9.21954 53.7662 9.23214 53.7293C9.21954 53.6923 9.20695 53.6677 9.18176 53.6431C9.21954 53.6062 9.25733 53.5693 9.29511 53.5324C9.52182 52.8678 9.62258 52.1418 9.62258 51.3665V46.8131C9.62258 46.1363 9.55961 45.521 9.39587 44.9303C9.30771 44.7949 9.20695 44.6718 9.0684 44.5611C9.081 44.5119 9.10619 44.4503 9.14397 44.4011H9.21954C9.20695 44.3765 9.20695 44.3642 9.19435 44.3396H14.8495C14.8369 45.1395 14.8747 45.8902 14.9755 46.4932C14.9125 46.5424 14.8747 46.5793 14.8243 46.5916ZM5.75592 51.6003C5.40326 51.9818 4.96243 52.2894 4.47123 52.474C3.84148 52.6955 3.08578 52.794 2.38046 52.7448C2.33008 50.8988 2.35527 49.0406 2.35527 47.1946C2.38046 46.2593 2.34267 45.2133 3.16135 44.5734C3.14875 44.4995 3.11097 44.438 3.06059 44.3642C2.05299 44.3519 1.23431 44.3642 0.27709 44.3396C0.188925 44.3765 0.163735 44.4749 0.138545 44.5365C0.365255 44.7334 0.55418 44.9795 0.60456 45.2748C0.743105 45.804 0.73051 46.4439 0.73051 47.0223C0.717915 48.6591 0.7557 50.2958 0.68013 51.9449C0.642345 52.5602 0.516395 53.2124 0 53.6308C0.012595 53.68 0.037785 53.7539 0.07557 53.8031C1.7633 53.8031 3.45103 53.8646 5.15136 53.8277C5.41585 53.1263 5.70554 52.4248 5.91965 51.711C5.85668 51.6495 5.8063 51.6126 5.75592 51.6003ZM6.99023 52.0925C7.50662 52.0925 7.92226 52.4986 7.92226 53.0032C7.92226 53.5078 7.50662 53.9139 6.99023 53.9139C6.48643 53.9139 6.07079 53.5078 6.07079 53.0032C6.07079 52.4986 6.48643 52.0925 6.99023 52.0925ZM13.9553 52.0925C14.4717 52.0925 14.8873 52.4986 14.8873 53.0032C14.8873 53.5078 14.4717 53.9139 13.9553 53.9139C13.4515 53.9139 13.0232 53.5078 13.0232 53.0032C13.0232 52.4986 13.4515 52.0925 13.9553 52.0925ZM26.5755 52.0925C27.0919 52.0925 27.5075 52.4986 27.5075 53.0032C27.5075 53.5078 27.0919 53.9139 26.5755 53.9139C26.0591 53.9139 25.656 53.5078 25.656 53.0032C25.656 52.4986 26.0591 52.0925 26.5755 52.0925ZM20.1394 14.7552C20.3913 15.2352 20.3157 15.9982 20.0387 16.3797C23.0111 14.7306 25.9331 12.8478 27.8979 10.2634C28.5529 9.40201 29.3338 8.4052 29.3967 7.18687C29.359 7.18687 29.3212 7.18687 29.296 7.18687C26.7518 10.2019 23.729 12.7493 20.1394 14.7552ZM24.2328 11.3095C25.3789 10.5711 26.4999 9.51276 27.6334 8.34367C28.8174 7.11304 30.5807 5.41477 29.8124 3.23655C29.7368 3.22425 29.7368 3.16272 29.6612 3.17502C28.5655 6.11623 26.8777 8.4175 24.9003 10.3988C24.6484 10.6572 24.2328 10.9034 24.2328 11.3095ZM16.0712 25.1048C16.0082 25.1048 15.9579 25.1048 15.9075 25.1048C15.9201 25.1787 15.9075 25.2525 15.9705 25.2648C17.3307 26.4585 19.22 27.5661 20.5173 29.2028C22.142 31.2457 23.4645 34.2484 22.4317 37.3865C23.0111 36.9066 23.4267 36.1313 23.729 35.4052C24.0439 34.6422 24.2958 33.6946 24.2958 32.6732C24.321 27.6399 19.7238 26.5201 16.0712 25.1048ZM22.7844 21.979C22.7844 21.8806 22.734 21.8437 22.671 21.8191C21.5501 22.4467 20.3535 22.9758 18.7917 23.1727C19.3459 23.382 20.8951 23.6773 21.6382 23.382C22.2428 23.1604 22.3939 22.3113 22.7844 21.979ZM19.0688 21.1176C19.1444 22.1882 18.3887 22.4467 17.8219 22.8897C19.4719 22.7913 20.8573 22.2005 21.9531 21.5237C23.0489 20.8592 24.2076 20.0716 24.6862 18.804C24.6484 18.804 24.6106 18.804 24.5854 18.804C23.0363 19.85 21.3233 20.7484 19.0688 21.1176ZM19.8371 18.9394C19.8749 19.284 19.8245 19.6408 19.686 19.9485C19.5223 20.2562 19.0688 20.4161 19.2074 20.65C20.7818 20.2808 22.1672 19.6039 23.3511 18.7917C24.4721 18.0041 25.6686 17.0319 26.0339 15.5059C25.9961 15.5059 25.9583 15.5059 25.9205 15.5059C24.2076 16.9581 22.2302 18.1395 19.8371 18.9394ZM20.1394 16.8719C20.4039 17.5734 19.9001 18.1641 19.8371 18.5456C22.3183 17.5242 24.6106 16.0474 26.2354 14.1522C26.7644 13.5492 27.5201 12.7862 27.3312 11.8263C25.2656 13.8323 22.9607 15.5921 20.1394 16.8719ZM16.5876 13.9923C16.1468 14.3737 15.5674 14.706 15.3911 15.309C15.9705 15.2352 16.3861 14.7429 16.8521 14.3984C19.3585 12.5647 21.7264 11.0757 23.6156 8.62671C24.5603 7.39608 26.1346 5.14403 24.6484 3.63036C24.6106 3.63036 24.5729 3.63036 24.5351 3.63036C24.5351 3.67958 24.5351 3.74111 24.5351 3.77803C24.5729 5.42707 23.8046 6.71923 22.9859 7.86372C21.2226 10.3865 18.7917 12.0725 16.5876 13.9923ZM7.64517 9.80811C7.74593 9.54968 7.75852 9.1928 7.84669 8.89745C8.30011 8.89745 8.76612 8.88514 9.03062 9.05743C9.01802 9.73427 8.18675 9.62352 7.64517 9.80811ZM6.39826 22.1759C6.18415 19.7762 7.41846 17.8441 8.94245 16.675C9.00543 16.6627 9.03062 16.6873 9.03062 16.7242C8.33789 18.0902 7.51922 19.2717 7.64517 21.376C7.75852 23.6281 8.92986 25.4125 10.2775 26.5816C10.7309 26.9754 11.3607 27.1969 11.6756 27.7015C9.081 26.9016 6.66276 25.191 6.39826 22.1759ZM9.86189 8.44211C9.86189 8.30675 9.86189 8.17138 9.86189 8.04831C10.479 8.07293 11.008 8.19599 11.5118 8.34367C11.071 8.47903 10.2397 8.82361 9.86189 8.44211Z" fill="#D71920"/>
</svg>
