<svg width="22" height="22" viewBox="0 0 22 22" fill="none" xmlns="http://www.w3.org/2000/svg">
<path d="M20.8372 10.9999C20.8372 13.6076 19.797 16.1113 17.9546 17.9538C16.1121 19.7963 13.6083 20.8364 11.0006 20.8364C8.39289 20.8364 5.88917 19.7963 4.04668 17.9538C2.20418 16.1113 1.16406 13.6076 1.16406 10.9999C1.16406 8.39216 2.20418 5.88844 4.04668 4.04594C5.88917 2.20345 8.39289 1.16333 11.0006 1.16333C13.6083 1.16333 16.1121 2.20345 17.9546 4.04594C19.797 5.88844 20.8372 8.39216 20.8372 10.9999Z" fill="white"/>
<path d="M20.8372 10.9999C20.8372 13.6076 19.797 16.1113 17.9546 17.9538C16.1121 19.7963 13.6083 20.8364 11.0006 20.8364C8.39289 20.8364 5.88917 19.7963 4.04668 17.9538C2.20418 16.1113 1.16406 13.6076 1.16406 10.9999C1.16406 8.39216 2.20418 5.88844 4.04668 4.04594C5.88917 2.20345 8.39289 1.16333 11.0006 1.16333C13.6083 1.16333 16.1121 2.20345 17.9546 4.04594C19.797 5.88844 20.8372 8.39216 20.8372 10.9999Z" stroke="#FF0000" stroke-width="0.397605"/>
<path d="M11 1C8.3477 1 5.79941 2.05498 3.92719 3.92719C2.04755 5.80683 1 8.3477 1 11C1 13.6523 2.05498 16.2006 3.92719 18.0728C5.80684 19.945 8.3477 21 11 21C13.6523 21 16.2006 19.945 18.0728 18.0728C19.9525 16.1932 21 13.6523 21 11C21 8.3477 19.945 5.79941 18.0728 3.92719C16.2006 2.05498 13.6523 1 11 1ZM11 1.32689C13.5632 1.32689 16.0223 2.34473 17.8425 4.1575C19.6553 5.97028 20.6731 8.42942 20.6731 11C20.6731 13.5632 19.6553 16.0223 17.8425 17.8425C16.0297 19.6553 13.5706 20.6731 11 20.6731C8.43685 20.6731 5.97771 19.6553 4.1575 17.8425C2.34473 16.0297 1.3269 13.5706 1.3269 11C1.3269 8.43685 2.34473 5.97771 4.1575 4.1575C5.97771 2.34473 8.43685 1.32689 11 1.32689Z" fill="#002E60"/>
<path d="M11 1C8.3477 1 5.79941 2.05498 3.92719 3.92719C2.04755 5.80683 1 8.3477 1 11C1 13.6523 2.05498 16.2006 3.92719 18.0728C5.80684 19.945 8.3477 21 11 21C13.6523 21 16.2006 19.945 18.0728 18.0728C19.9525 16.1932 21 13.6523 21 11C21 8.3477 19.945 5.79941 18.0728 3.92719C16.2006 2.05498 13.6523 1 11 1ZM11 1.32689C13.5632 1.32689 16.0223 2.34473 17.8425 4.1575C19.6553 5.97028 20.6731 8.42942 20.6731 11C20.6731 13.5632 19.6553 16.0223 17.8425 17.8425C16.0297 19.6553 13.5706 20.6731 11 20.6731C8.43685 20.6731 5.97771 19.6553 4.1575 17.8425C2.34473 16.0297 1.3269 13.5706 1.3269 11C1.3269 8.43685 2.34473 5.97771 4.1575 4.1575C5.97771 2.34473 8.43685 1.32689 11 1.32689Z" stroke="#002E60" stroke-width="0.954499"/>
<path d="M11 1C8.3477 1 5.79941 2.05498 3.92719 3.92719C2.04755 5.80683 1 8.3477 1 11C1 13.6523 2.05498 16.2006 3.92719 18.0728C5.80684 19.945 8.3477 21 11 21C13.6523 21 16.2006 19.945 18.0728 18.0728C19.9525 16.1932 21 13.6523 21 11C21 8.3477 19.945 5.79941 18.0728 3.92719C16.2006 2.05498 13.6523 1 11 1ZM11 1.32689C13.5632 1.32689 16.0223 2.34473 17.8425 4.1575C19.6553 5.97028 20.6731 8.42942 20.6731 11C20.6731 13.5632 19.6553 16.0223 17.8425 17.8425C16.0297 19.6553 13.5706 20.6731 11 20.6731C8.43685 20.6731 5.97771 19.6553 4.1575 17.8425C2.34473 16.0297 1.3269 13.5706 1.3269 11C1.3269 8.43685 2.34473 5.97771 4.1575 4.1575C5.97771 2.34473 8.43685 1.32689 11 1.32689Z" fill="#7BB1DD"/>
<path d="M17.2182 11.0373C17.2182 12.6792 16.5644 14.2543 15.4055 15.4133C14.2465 16.5723 12.6714 17.226 11.0295 17.226C9.38762 17.226 7.81259 16.5723 6.6536 15.4133C5.49461 14.2543 4.84082 12.6792 4.84082 11.0373C4.84082 9.39544 5.49461 7.8204 6.6536 6.66141C7.81259 5.50242 9.38762 4.84863 11.0295 4.84863C12.6714 4.84863 14.2465 5.50242 15.4055 6.66141C16.5644 7.8204 17.2182 9.39544 17.2182 11.0373Z" stroke="#002E60" stroke-width="0.441789"/>
<path d="M16.7877 11.0296C16.7877 12.5601 16.1785 14.0311 15.0938 15.1158C14.0091 16.2005 12.5381 16.8097 11.0076 16.8097C9.47717 16.8097 8.00614 16.2005 6.92145 15.1158C5.83675 14.0311 5.22754 12.5601 5.22754 11.0296C5.22754 9.49914 5.83675 8.02811 6.92145 6.94342C8.00614 5.85872 9.47717 5.24951 11.0076 5.24951C12.5381 5.24951 14.0091 5.85872 15.0938 6.94342C16.1785 8.02811 16.7877 9.49914 16.7877 11.0296Z" fill="#7BB1DD"/>
<path fill-rule="evenodd" clip-rule="evenodd" d="M6.23024 6.25254C5.8142 8.01331 5.8142 9.59578 5.82906 10.6805C5.79934 15.6062 9.44718 17.1366 10.9925 17.6047C12.5378 17.1366 16.1857 15.6062 16.1559 10.6805C16.1708 9.59578 16.1708 8.01331 15.7548 6.25254C13.3625 5.83649 11.9063 5.87364 10.9925 5.86621C10.0787 5.87364 8.62995 5.83649 6.23024 6.25254Z" fill="#002E60"/>
<path fill-rule="evenodd" clip-rule="evenodd" d="M6.72803 6.60183C6.468 7.76825 6.33427 8.8158 6.28226 9.69247C6.25997 10.6434 6.25254 11.6093 6.40113 12.4636C6.48286 12.9094 6.60916 13.3775 6.8469 13.8604C7.34467 14.7965 8.05789 15.6212 8.70425 16.0595C9.55864 16.7133 10.4427 17.0699 10.9999 17.2482C11.5571 17.0699 12.4338 16.7133 13.2956 16.0595C13.942 15.6212 14.6552 14.7891 15.153 13.8604C15.3907 13.3775 15.5245 12.9094 15.5988 12.4636C15.7473 11.6093 15.7399 10.6434 15.7176 9.69247C15.6656 8.8158 15.5319 7.76825 15.2719 6.60183C13.1248 6.20807 11.8246 6.24522 10.9999 6.23779C10.1753 6.24522 8.87513 6.20807 6.72803 6.60183Z" fill="#FFBB59"/>
<path d="M9.56613 18.4071C9.54384 18.3923 9.49926 18.3402 9.46211 18.318C9.11293 18.0951 8.70431 18.3105 8.68202 18.734C8.66717 18.994 8.86033 19.2095 9.06835 19.2541C9.28381 19.2912 9.43983 19.1946 9.58841 19.0683L9.8113 19.2986C9.69986 19.4175 9.5587 19.529 9.31352 19.581C9.26895 19.5884 9.20208 19.5958 9.12779 19.5958C8.66717 19.5512 8.40714 19.3061 8.33284 18.9197C8.28827 18.7117 8.32541 18.4963 8.43685 18.3105C8.57058 18.0951 8.76375 17.9688 9.01635 17.9168C9.31352 17.8573 9.61813 17.9539 9.80387 18.1545L9.56613 18.4071Z" fill="#002E60"/>
<path d="M10.5238 17.9167H10.1523V19.5512H10.5238V17.9167Z" fill="#002E60"/>
<path d="M12.2108 18.2585H11.713V19.5512H11.3415V18.2585H10.8438V17.9167H12.2108V18.2585Z" fill="#002E60"/>
<path d="M13.979 17.9167L13.3401 18.8974V19.5512H12.9834V18.8974L12.3594 17.9167H12.7829L13.1692 18.5854L13.5629 17.9167H13.979Z" fill="#002E60"/>
<path fill-rule="evenodd" clip-rule="evenodd" d="M4.70004 8.16204L4.53659 8.46665L3.125 7.73114L3.30331 7.39681L4.10568 7.34481L3.69707 6.63901L3.86794 6.30469L5.28696 7.05506L5.12351 7.35967L4.18741 6.86932L4.59603 7.60484L3.77136 7.68656L4.70004 8.16204Z" fill="#002E60"/>
<path d="M6.61646 5.5765L6.35643 5.84396L5.99239 5.7028L5.52434 6.20057L5.68778 6.55718L5.44261 6.80978L4.73682 5.20503L4.9597 4.96729L6.61646 5.5765ZM5.68778 5.58393L5.15286 5.3759L5.39061 5.89596L5.68778 5.58393Z" fill="#002E60"/>
<path fill-rule="evenodd" clip-rule="evenodd" d="M6.84674 5.40575L6.01465 4.04616L6.28954 3.86786L7.44853 4.32848L6.9359 3.48153L7.23307 3.30322L8.05774 4.67024L7.80514 4.82625L6.609 4.3582L7.14392 5.22744L6.84674 5.40575Z" fill="#002E60"/>
<path d="M9.2622 3.10227C9.23991 3.09484 9.18048 3.05769 9.1359 3.04283C8.74957 2.93139 8.41525 3.24342 8.51183 3.64461C8.57126 3.88978 8.809 4.0458 9.01703 4.02351C9.23248 4.00123 9.35135 3.8675 9.45537 3.71148L9.72282 3.8675C9.64853 4.00866 9.55195 4.15724 9.32906 4.26868C9.28449 4.29097 9.23248 4.31326 9.15076 4.32812C8.70499 4.40984 8.39296 4.25383 8.21465 3.90464C8.11807 3.71891 8.08835 3.50345 8.14779 3.30286C8.21465 3.06512 8.36324 2.89424 8.58612 2.77537C8.85358 2.64164 9.16562 2.64907 9.39593 2.7828L9.2622 3.10227Z" fill="#002E60"/>
<path d="M16.52 4.86319L16.1337 4.56601L15.361 5.58384L15.0713 5.36839L15.8514 4.35799L15.465 4.06081L15.6656 3.80078L16.7206 4.61059L16.52 4.86319Z" fill="#002E60"/>
<path fill-rule="evenodd" clip-rule="evenodd" d="M10.0938 2.47855L10.1309 4.07588L10.4727 4.06845L10.4578 3.42209L11.119 3.40723L11.1339 4.05359L11.4756 4.04616L11.4459 2.44141L11.0893 2.44884L11.1042 3.08777L10.4504 3.10263L10.4355 2.47113L10.0938 2.47855Z" fill="#002E60"/>
<path fill-rule="evenodd" clip-rule="evenodd" d="M12.3076 2.54541L13.4889 2.80544L13.4146 3.11004L12.5825 2.92431L12.5082 3.25121L13.1991 3.39236L13.0357 3.67468L12.4413 3.54838L12.367 3.88271L13.2214 4.06844L13.1545 4.36562L11.9658 4.11302L12.3076 2.54541Z" fill="#002E60"/>
<path fill-rule="evenodd" clip-rule="evenodd" d="M14.4548 3.88257C14.2467 3.72656 14.2467 3.6374 14.2987 3.56311C14.3508 3.50367 14.4176 3.50367 14.4845 3.52596C14.5959 3.56311 14.6851 3.6374 14.7519 3.72656C14.7891 3.77113 14.8188 3.82314 14.8485 3.86772L15.1234 3.69684C15.0788 3.61512 14.9674 3.39223 14.6405 3.25107C14.4845 3.18421 14.113 3.11734 13.9496 3.50367C13.8827 3.66712 13.9124 3.77113 13.9496 3.84543C14.0387 3.99402 14.1873 4.09803 14.3136 4.20947C14.3656 4.25405 14.425 4.30605 14.4473 4.37291C14.4622 4.42492 14.4473 4.4695 14.4102 4.50665C14.217 4.67009 13.8753 4.32091 13.8084 4.12774L13.5112 4.2689C13.6672 4.57351 13.9347 4.8484 14.3508 4.86326C14.4993 4.85583 14.6777 4.77411 14.7594 4.58837C14.8114 4.43978 14.8262 4.30605 14.7519 4.18718C14.6777 4.06831 14.5514 3.94944 14.4548 3.88257Z" fill="#002E60"/>
<path fill-rule="evenodd" clip-rule="evenodd" d="M17.2118 5.07861L17.977 6.00729L17.7393 6.20789L17.1895 5.54667L16.9295 5.75469L17.405 6.31933L17.0855 6.42334L16.6992 5.95529L16.4317 6.17074L16.9963 6.83939L16.7586 7.03998L15.9785 6.10387L17.2118 5.07861Z" fill="#002E60"/>
<path d="M18.4222 7.41144L18.2588 7.08454L17.8501 7.29257L18.0061 7.6046C18.0879 7.77548 18.2216 7.79777 18.3256 7.76062C18.4445 7.72347 18.5113 7.57488 18.4222 7.41144ZM17.5752 8.58528L17.3895 8.22124L17.6941 7.68632L17.5604 7.43372L17.1072 7.66404L16.9512 7.352L18.3776 6.63135L18.6822 7.24056C18.7268 7.32228 18.7417 7.37429 18.7639 7.44115C18.8085 7.56745 18.8085 7.68633 18.7714 7.78291C18.6377 8.10237 18.2142 8.26582 17.9096 7.9835L17.5752 8.58528Z" fill="#002E60"/>
<path d="M18.4295 11.1636C18.2957 11.2824 18.0877 11.2527 17.9763 11.1339C17.9242 11.0818 17.8945 11.0076 17.8945 10.9258C17.902 10.8664 17.9168 10.8144 17.9391 10.7624C17.9688 10.7029 18.0134 10.6584 18.0654 10.6361C18.1843 10.5692 18.3477 10.5692 18.4592 10.6361C18.5409 10.6881 18.5929 10.7698 18.6152 10.8664C18.63 10.9258 18.6375 10.9927 18.6375 11.067C18.6375 11.2602 18.578 11.4385 18.4369 11.5276C18.3997 11.5499 18.3477 11.5648 18.2883 11.5722C18.1323 11.5871 18.0134 11.5425 17.9168 11.4682L18.0208 11.3047C18.2957 11.5202 18.4295 11.3122 18.4295 11.1636ZM18.4443 10.9184C18.4443 10.8367 18.3774 10.7847 18.3106 10.7698C18.2809 10.7624 18.2437 10.7624 18.214 10.7698C18.1843 10.7772 18.1546 10.7995 18.1397 10.8218C18.0654 10.911 18.1174 11.0298 18.1843 11.0521C18.2066 11.0596 18.2437 11.067 18.2809 11.0744C18.4146 11.067 18.4443 10.9556 18.4443 10.9184Z" fill="#7BB1DD"/>
<path d="M19.6479 11.3492H19.5216V11.5647H19.3284V11.3492H18.853L18.8232 11.2006L19.3433 10.584H19.5216V11.1783H19.6479V11.3492ZM19.3359 11.1858V10.8812L19.061 11.1858H19.3359Z" fill="#7BB1DD"/>
<path d="M2.5895 10.8438L2.54492 10.6804L2.80495 10.5986H2.96097V11.5645H2.76038V10.7918L2.5895 10.8438Z" fill="#7BB1DD"/>
<path d="M3.77128 11.0594C3.88273 11.1039 3.94216 11.1931 3.94216 11.3045C3.94216 11.4383 3.84558 11.5274 3.72671 11.5571C3.68213 11.572 3.63013 11.572 3.57069 11.572C3.41467 11.5646 3.20665 11.4977 3.19922 11.3045C3.20665 11.1708 3.23637 11.1188 3.34781 11.0594C3.22894 10.9851 3.18436 10.8588 3.25865 10.725C3.27351 10.6953 3.30323 10.6656 3.33295 10.6507C3.36267 10.6285 3.39981 10.6136 3.43696 10.6062C3.47411 10.5987 3.51868 10.5913 3.56326 10.5913C3.73414 10.5913 3.88272 10.673 3.89758 10.8439C3.90501 10.8885 3.89758 10.9405 3.86787 10.9776C3.86044 11.0074 3.82329 11.0371 3.77128 11.0594ZM3.6747 10.9628C3.69699 10.9405 3.71185 10.9108 3.71185 10.8811C3.71185 10.8439 3.69699 10.8216 3.6747 10.7993C3.65241 10.777 3.61527 10.7696 3.57812 10.7696C3.53354 10.7696 3.50383 10.777 3.48154 10.7993C3.45925 10.8216 3.44439 10.8439 3.44439 10.8811C3.44439 10.9108 3.45925 10.9405 3.48154 10.9628C3.52611 10.9999 3.60784 11.0074 3.6747 10.9628ZM3.73414 11.2748C3.73414 11.1782 3.6227 11.1485 3.5484 11.1559C3.47411 11.1634 3.39981 11.208 3.39981 11.2748C3.39981 11.364 3.4964 11.4085 3.57069 11.4085C3.65984 11.4085 3.73414 11.3491 3.73414 11.2748Z" fill="#7BB1DD"/>
<path fill-rule="evenodd" clip-rule="evenodd" d="M11 17.2409C11.5572 17.0626 12.4339 16.706 13.2957 16.0522C13.942 15.6138 14.6553 14.7817 15.153 13.8531C15.3908 13.3701 15.5245 12.9021 15.5988 12.4563C15.7474 11.6019 15.74 10.6361 15.7177 9.68515C15.6657 8.80848 15.5319 7.76093 15.2719 6.59451C13.1248 6.20075 11.8247 6.2379 11 6.23047" fill="#E9AB00"/>
<path fill-rule="evenodd" clip-rule="evenodd" d="M15.3608 11.5796C15.1602 14.0387 14.0087 15.7401 10.9997 16.8099C7.99083 15.7326 6.83927 14.0387 6.63867 11.5796H15.3608Z" fill="#7BB1DD"/>
<path fill-rule="evenodd" clip-rule="evenodd" d="M6.60936 11.2157C6.58708 10.7402 6.60193 10.2424 6.63165 9.70749C6.67623 8.88282 6.72824 7.92443 6.97341 6.8323C8.88277 6.49055 10.1755 6.49798 10.9927 6.46826C11.81 6.49055 13.1027 6.48312 15.012 6.8323C15.2572 7.93186 15.3092 8.89025 15.3538 9.70749C15.3909 10.2424 15.3984 10.7402 15.3761 11.2231L6.60936 11.2157Z" fill="white"/>
<path fill-rule="evenodd" clip-rule="evenodd" d="M13.9048 15.0863C13.6744 15.324 13.407 15.5469 13.1098 15.7624L9.64769 11.587H10.9998L13.9048 15.0863ZM15.138 12.902C15.0266 13.3181 14.8706 13.7118 14.6625 14.0759L12.5972 11.5796H14.0459L15.138 12.902ZM12.0177 16.3939C11.7056 16.5424 11.3639 16.6836 10.9924 16.8173L6.63135 11.587H8.05037L12.0177 16.3939Z" fill="#A8C9E8"/>
<path fill-rule="evenodd" clip-rule="evenodd" d="M12.07 10.5542C12.6792 10.5245 13.3032 10.4279 13.593 10.3536C13.5336 10.8291 13.0506 10.7771 13.3255 11.2229H12.7089C12.4786 11.1411 12.2334 11.0446 12.0254 11.0297C11.966 11.0223 11.9139 11.0223 11.8619 11.0446C11.2156 11.2897 10.6955 11.0074 10.2126 11C10.1978 11.0594 10.0937 11.1263 9.88572 11.1486C9.53653 11.1932 9.29136 11.0446 9.01647 11.0371C8.91989 11.0371 8.82331 11.0669 8.74159 11.2229C8.60043 11.0297 8.5187 10.8811 8.32554 10.6434C8.03579 10.5022 7.76833 10.3908 7.5083 10.2942L7.52316 10.2422C8.35526 10.4948 8.97933 10.5914 9.54396 10.6434C10.2349 10.6731 10.9853 10.7177 11.6613 10.6657C11.8545 10.5914 11.9288 10.5617 12.07 10.5542Z" fill="#FBC24E"/>
<path fill-rule="evenodd" clip-rule="evenodd" d="M13.5038 10.4204C13.4295 10.725 12.9763 10.8439 13.2809 11.2228H12.9168C12.6865 11.1411 12.2853 10.9628 11.8396 10.9628C11.6761 11.0891 11.3789 11.1485 10.9257 11.0445C10.7177 10.9999 10.428 10.9256 10.1308 10.933C10.0639 11.2154 9.12782 11.1039 8.7935 10.6656L8.37002 10.5616L8.27344 10.4873C8.94951 10.6284 9.63302 10.7102 9.98963 10.725C10.6286 10.7473 11.2303 10.7473 11.6613 10.7324C11.8024 10.6879 11.8321 10.673 11.9064 10.6433C12.0104 10.5913 12.1293 10.5987 12.2333 10.5987C12.8202 10.5541 13.1991 10.4724 13.5038 10.4204Z" fill="#EAAA00"/>
<path fill-rule="evenodd" clip-rule="evenodd" d="M10.6359 10.5467C10.7176 10.4278 10.8513 10.3609 11.0073 10.3312L10.9999 10.6804C11.0371 10.6804 11.0816 10.6804 11.1188 10.6804L11.1114 10.3089C11.5497 10.2495 12.0177 10.3238 12.3966 10.4129V10.5392C12.4412 10.5392 12.4784 10.5318 12.5155 10.5318V10.3832L13.7488 9.95232C13.3996 9.4917 13.4293 8.94935 13.5185 8.39957C13.4516 8.67446 13.2882 9.18709 12.8721 9.65514C12.5378 10.0266 12.5749 10.1083 12.5155 10.2124L12.4932 7.71606L12.2109 7.81265C12.1515 7.82751 12.1886 7.85722 12.1366 7.87951L11.8543 7.99095L12.1812 7.97609C12.2258 7.97609 12.196 7.90923 12.2406 7.9018L12.4189 7.88694L12.3966 10.3535C12.2035 10.0489 11.8617 9.68486 12.0029 8.91963C11.6611 10.2198 10.5541 10.0786 10.6359 10.5467ZM10.153 9.1648C9.85578 10.1826 8.97168 10.0563 9.02369 10.465C9.15741 10.3461 9.29115 10.3387 9.41745 10.3015V10.6135C9.45459 10.621 9.49174 10.621 9.52889 10.621L9.53631 10.2866C9.85578 10.2495 10.1381 10.2866 10.4278 10.3164C10.1975 9.93746 10.0489 9.55856 10.153 9.1648Z" fill="#EAAA00"/>
<path fill-rule="evenodd" clip-rule="evenodd" d="M13.5261 8.39233C13.4592 8.66722 13.2958 9.17985 12.8797 9.64791C12.5454 10.0194 12.5825 10.1011 12.5231 10.2051L12.5082 8.74895L13.5261 8.39233ZM10.4577 9.43245L12.0105 8.89754C11.6613 10.22 10.5543 10.0714 10.6435 10.5394C10.376 10.3017 10.1234 9.83364 10.4577 9.43245ZM8.86783 9.61076L10.1531 9.16499C9.85594 10.1828 8.97184 10.0565 9.02385 10.4651C8.72667 10.168 8.71924 9.81135 8.86783 9.61076Z" fill="#FFBB59"/>
<path fill-rule="evenodd" clip-rule="evenodd" d="M11.1194 7.40426V6.9585L10.8371 7.05508C10.7776 7.06994 10.8148 7.09965 10.7628 7.12194L10.4805 7.23338L10.8074 7.21853C10.8519 7.21853 10.8222 7.15166 10.8668 7.14423L11.0451 7.12937V7.44141L11.1194 7.40426Z" fill="#EAAA00"/>
<path fill-rule="evenodd" clip-rule="evenodd" d="M9.52164 8.50377V7.96143L9.23932 8.05801C9.17988 8.07287 9.21703 8.10258 9.16502 8.12487L8.89014 8.22889L9.2096 8.22146C9.25418 8.22146 9.22446 8.15459 9.26904 8.14716L9.44734 8.1323V8.53349L9.52164 8.50377Z" fill="#EAAA00"/>
<path fill-rule="evenodd" clip-rule="evenodd" d="M10.7995 7.21106C10.844 7.21106 10.8143 7.14419 10.8589 7.13676L10.8292 7.04761C10.7697 7.06247 10.8069 7.09219 10.7549 7.11447L10.7995 7.21106Z" fill="#FFBB59"/>
<path fill-rule="evenodd" clip-rule="evenodd" d="M11.6091 7.2334C11.1559 8.11007 10.5393 7.96148 10.465 8.38496C10.2272 8.19179 10.3312 7.79804 10.4798 7.62716L11.6091 7.2334Z" fill="#FFBB59"/>
<path fill-rule="evenodd" clip-rule="evenodd" d="M11.7427 7.9912C11.5867 7.80546 11.4827 7.58258 11.609 7.2334C11.1558 8.11007 10.5391 7.96148 10.4648 8.38496C10.7249 8.03578 11.505 8.00606 11.7427 7.9912Z" fill="#EAAA00"/>
<path fill-rule="evenodd" clip-rule="evenodd" d="M10.4725 9.35812C10.205 8.96436 10.2273 8.56317 10.4651 8.45173C10.8885 8.30314 11.4309 8.13226 11.7355 7.99854C11.5275 8.81577 10.5691 8.89006 10.4725 9.35812Z" fill="#FFBB59"/>
<path fill-rule="evenodd" clip-rule="evenodd" d="M11.7435 7.99121C11.528 8.81588 10.5771 8.89017 10.4805 9.35822C10.6811 9.09076 11.1417 8.91246 12.0109 8.88274C11.8178 8.63757 11.684 8.36268 11.7435 7.99121Z" fill="#EAAA00"/>
<path fill-rule="evenodd" clip-rule="evenodd" d="M9.93815 8.35498C9.56668 8.49614 9.23978 8.60758 8.95004 8.70416C8.81631 8.83789 8.65286 9.20936 8.89803 9.5214C8.85346 9.15736 9.62612 9.02363 9.93815 8.35498Z" fill="#FFBB59"/>
<path fill-rule="evenodd" clip-rule="evenodd" d="M8.89734 9.5214C8.85276 9.15736 9.63285 9.02363 9.93746 8.35498C9.9226 8.51843 9.86317 8.86761 10.1529 9.15736C9.69972 9.17965 9.11279 9.24651 8.89734 9.5214Z" fill="#EAAA00"/>
<path fill-rule="evenodd" clip-rule="evenodd" d="M9.2018 8.22131C9.24638 8.22131 9.21666 8.15444 9.26124 8.14702L9.23152 8.05786C9.17209 8.07272 9.20923 8.10244 9.15723 8.12473L9.2018 8.22131Z" fill="#FFBB59"/>
<path fill-rule="evenodd" clip-rule="evenodd" d="M8.77095 8.74902C8.45148 8.97934 7.87199 9.41024 7.56738 10.1383C7.76798 10.116 7.96857 10.116 8.25832 10.1755C8.02801 10.0195 7.98343 9.84115 8.77095 8.74902Z" fill="#FFBB59"/>
<path fill-rule="evenodd" clip-rule="evenodd" d="M8.48889 10.2274L8.25115 10.1828C8.02084 10.0268 7.97626 9.84847 8.76378 8.75635C8.60776 9.03867 8.35516 9.55873 8.48889 10.2274Z" fill="#EAAA00"/>
<path fill-rule="evenodd" clip-rule="evenodd" d="M12.1813 7.9613C12.2259 7.9613 12.1962 7.89443 12.2407 7.88701L12.211 7.79785C12.1516 7.81271 12.1887 7.84243 12.1367 7.86472L12.1813 7.9613Z" fill="#FFBB59"/>
<path fill-rule="evenodd" clip-rule="evenodd" d="M11.0819 12.1813L11.2676 12.4116C11.2899 12.4413 11.2825 12.471 11.2825 12.4933C11.4088 12.4859 11.5573 12.5305 11.6391 12.6494C11.7282 12.7831 11.7951 12.8499 11.8694 12.902C11.966 12.9762 12.0625 13.006 12.1517 13.0357C12.278 13.0728 12.3746 13.1545 12.434 13.3254C12.4563 13.3254 12.4712 13.3106 12.538 13.3329L12.7832 13.4146C12.7981 13.422 12.8204 13.4294 12.8352 13.4443C12.8501 13.4666 12.8575 13.4814 12.8575 13.5037C12.8575 13.526 12.8575 13.5483 12.8501 13.5706L12.6643 13.8306C12.6495 13.8529 12.6123 13.8603 12.6049 13.8603C12.6569 13.9792 12.6643 14.1352 12.5603 14.269C12.434 14.4324 12.4117 14.4844 12.382 14.5736C12.3597 14.6404 12.3523 14.7667 12.3523 14.9079C12.3523 15.0193 12.2929 15.1233 12.174 15.1976C12.174 15.2051 12.1814 15.2199 12.1814 15.2422V15.5097C12.1814 15.5468 12.1814 15.5765 12.1666 15.6063C12.1443 15.6434 12.1146 15.6583 12.07 15.6583C12.0328 15.6657 12.0031 15.6583 11.9957 15.6508L11.7282 15.5617C11.6985 15.5468 11.6985 15.532 11.6985 15.532C11.431 15.7474 11.2082 15.5543 10.9927 15.5468C10.7773 15.5543 10.5544 15.7474 10.2869 15.532C10.2869 15.532 10.2795 15.5468 10.2572 15.5617L9.98974 15.6508C9.98231 15.6508 9.95259 15.6583 9.91545 15.6583C9.8783 15.6508 9.84858 15.636 9.81886 15.6063C9.80401 15.584 9.79658 15.5468 9.804 15.5097V15.2422C9.804 15.2199 9.81143 15.2051 9.81143 15.1976C9.68513 15.1233 9.63313 15.0193 9.63313 14.9079C9.63313 14.7667 9.6257 14.6404 9.60341 14.5736C9.57369 14.477 9.5514 14.4324 9.4251 14.269C9.32109 14.1352 9.33595 13.9792 9.38053 13.8603C9.3731 13.8603 9.34338 13.8529 9.32109 13.8306L9.13536 13.5706C9.1205 13.5483 9.1205 13.5186 9.12793 13.5037C9.12793 13.4814 9.13536 13.4592 9.15022 13.4443C9.16508 13.4294 9.18736 13.422 9.20222 13.4146L9.44739 13.3329C9.51426 13.3106 9.52912 13.3254 9.5514 13.3254C9.61084 13.1471 9.70742 13.0654 9.83372 13.0357C9.92287 13.0134 10.0195 12.9762 10.116 12.902C10.1903 12.8499 10.2498 12.7757 10.3464 12.6494C10.4355 12.5305 10.5767 12.4859 10.703 12.4933C10.703 12.471 10.6881 12.4413 10.7178 12.4116L10.9036 12.1813C10.9333 12.1441 10.9704 12.1441 10.9853 12.1367C11.0224 12.1441 11.0521 12.1441 11.0819 12.1813Z" fill="#002E60"/>
<path fill-rule="evenodd" clip-rule="evenodd" d="M10.9256 13.0803C10.8661 13.0209 10.7621 12.9763 10.6507 13.0655C10.6358 13.0729 10.621 13.0877 10.6061 13.1026C10.5095 13.1918 10.4947 13.2735 10.3906 13.3255C10.2495 13.3924 9.99688 13.3924 10.0786 13.6672C10.1083 13.749 10.1083 13.7341 10.034 13.7192C9.9003 13.6895 9.78886 13.6152 9.774 13.4741C9.76657 13.3403 9.83343 13.2363 9.94487 13.1992C10.0192 13.1769 10.1009 13.1695 10.2495 13.0655C10.4278 12.9466 10.4501 12.7906 10.5838 12.7237C10.6655 12.694 10.7398 12.694 10.8215 12.7237C10.9478 12.7831 10.9776 12.9169 10.9627 13.0729C10.9627 13.1175 10.9404 13.0952 10.9256 13.0803Z" fill="#E41819"/>
<path fill-rule="evenodd" clip-rule="evenodd" d="M10.9553 13.8082V13.3476C10.9628 13.2436 10.9182 13.1693 10.829 13.147C10.7919 13.1396 10.7473 13.1396 10.7102 13.1619C10.6581 13.1916 10.6284 13.2436 10.5839 13.2956C10.5393 13.3476 10.4873 13.3996 10.4278 13.4219C10.3758 13.4442 10.3164 13.4516 10.2644 13.4813C10.205 13.5111 10.1604 13.5556 10.1678 13.6374C10.1678 13.6819 10.1901 13.7265 10.2272 13.7562C10.2644 13.786 10.309 13.8008 10.361 13.8157L10.7547 13.942C10.7844 13.9494 10.7993 13.942 10.8142 13.9197C10.8587 13.8528 10.8959 13.8454 10.933 13.838C10.9553 13.8454 10.9553 13.8231 10.9553 13.8082Z" fill="#E41819"/>
<path fill-rule="evenodd" clip-rule="evenodd" d="M11.0973 13.0803C11.1567 13.0209 11.2607 12.9763 11.3722 13.0655C11.387 13.0729 11.4019 13.0877 11.4168 13.1026C11.5133 13.1918 11.5282 13.2735 11.6322 13.3255C11.7734 13.3924 12.026 13.3924 11.9442 13.6672C11.9145 13.749 11.9145 13.7341 11.9888 13.7192C12.1226 13.6895 12.234 13.6152 12.2489 13.4741C12.2563 13.3403 12.1894 13.2363 12.078 13.1992C12.0037 13.1769 11.922 13.1695 11.7734 13.0655C11.5951 12.9466 11.5728 12.7906 11.439 12.7237C11.3573 12.694 11.283 12.694 11.2013 12.7237C11.075 12.7831 11.0453 12.9169 11.0601 13.0729C11.0601 13.1175 11.0824 13.0952 11.0973 13.0803Z" fill="#E41819"/>
<path fill-rule="evenodd" clip-rule="evenodd" d="M11.0669 13.8082V13.3476C11.0594 13.2436 11.104 13.1693 11.1932 13.147C11.2303 13.1396 11.2749 13.1396 11.3121 13.1619C11.3641 13.1916 11.3938 13.2436 11.4384 13.2956C11.4829 13.3476 11.5349 13.3996 11.5944 13.4219C11.6464 13.4442 11.7058 13.4516 11.7578 13.4813C11.8173 13.5111 11.8618 13.5556 11.8544 13.6374C11.8544 13.6819 11.8321 13.7265 11.795 13.7562C11.7578 13.786 11.7132 13.8008 11.6612 13.8157L11.2675 13.942C11.26 13.9494 11.2452 13.9494 11.2378 13.9494C11.2303 13.9494 11.2303 13.9494 11.2229 13.942C11.1635 13.8528 11.1337 13.8528 11.0817 13.838C11.0669 13.838 11.0594 13.8231 11.0669 13.8082Z" fill="#E41819"/>
<path fill-rule="evenodd" clip-rule="evenodd" d="M11.669 14.8485C11.7507 14.8634 11.8621 14.8337 11.8993 14.6999C11.9067 14.6851 11.9067 14.6628 11.9141 14.6405C11.9364 14.5142 11.8993 14.4325 11.9587 14.3285C12.033 14.1873 12.241 14.0387 12.0107 13.8678C11.9439 13.8233 11.9439 13.8307 12.0182 13.801C12.1445 13.749 12.2782 13.7415 12.3748 13.8456C12.4565 13.9496 12.4714 14.0684 12.3971 14.1725C12.3525 14.2393 12.293 14.2913 12.2336 14.4622C12.1667 14.6628 12.2336 14.8039 12.1593 14.9377C12.1147 15.012 12.0479 15.0565 11.9662 15.0714C11.825 15.1011 11.7284 15.0045 11.6467 14.8708C11.6244 14.8337 11.6541 14.8411 11.669 14.8485Z" fill="#E41819"/>
<path fill-rule="evenodd" clip-rule="evenodd" d="M11.2156 14.2839L11.4905 14.6554C11.5425 14.7445 11.6242 14.7817 11.7134 14.7445C11.7505 14.7297 11.7802 14.7074 11.7951 14.6628C11.8174 14.6108 11.8174 14.5439 11.8174 14.4771C11.8248 14.4102 11.8322 14.3359 11.8694 14.2839C11.8991 14.2393 11.9362 14.1873 11.966 14.1427C11.9957 14.0833 12.0031 14.0239 11.9511 13.957C11.9214 13.9199 11.8842 13.8976 11.8322 13.8901C11.7802 13.8901 11.7431 13.905 11.6911 13.9199L11.2973 14.0536C11.275 14.061 11.2602 14.0759 11.2676 14.0982C11.275 14.1873 11.2379 14.2245 11.2082 14.2468C11.2007 14.2542 11.2082 14.269 11.2156 14.2839Z" fill="#E41819"/>
<path fill-rule="evenodd" clip-rule="evenodd" d="M10.3461 14.8485C10.2644 14.8634 10.1529 14.8337 10.1158 14.6999C10.1084 14.6851 10.1084 14.6628 10.1009 14.6405C10.0786 14.5142 10.1158 14.4325 10.0563 14.3285C9.98205 14.1873 9.77403 14.0387 10.0043 13.8678C10.0712 13.8233 10.0712 13.8307 9.99691 13.801C9.87061 13.749 9.73688 13.7415 9.6403 13.8456C9.55858 13.9496 9.54372 14.0684 9.61801 14.1725C9.66259 14.2393 9.72202 14.2913 9.78146 14.4622C9.84832 14.6628 9.78146 14.8039 9.85575 14.9377C9.90033 15.012 9.96719 15.0565 10.0489 15.0714C10.1901 15.1011 10.2867 15.0045 10.3684 14.8708C10.3981 14.8337 10.3684 14.8411 10.3461 14.8485Z" fill="#E41819"/>
<path fill-rule="evenodd" clip-rule="evenodd" d="M10.799 14.2839L10.5242 14.6554C10.4721 14.7445 10.3904 14.7817 10.3013 14.7445C10.2641 14.7297 10.2344 14.7074 10.2195 14.6628C10.1973 14.6108 10.1973 14.5439 10.1973 14.4771C10.1898 14.4102 10.1824 14.3359 10.1453 14.2839C10.1155 14.2393 10.071 14.1873 10.0487 14.1427C10.019 14.0833 10.0115 14.0239 10.0635 13.957C10.0932 13.9199 10.1304 13.8976 10.1824 13.8901C10.2344 13.8901 10.2716 13.905 10.3236 13.9199L10.7173 14.0536C10.7396 14.061 10.747 14.0684 10.7545 14.0833C10.7396 14.1502 10.7693 14.1947 10.8065 14.2393C10.8139 14.2542 10.8139 14.269 10.799 14.2839Z" fill="#E41819"/>
<path fill-rule="evenodd" clip-rule="evenodd" d="M11.5348 14.9376C11.5199 15.0193 11.4679 15.1159 11.3193 15.1159C11.297 15.1159 11.2822 15.1159 11.2599 15.1085C11.1336 15.0936 11.0667 15.0342 10.9553 15.0565C10.7992 15.0862 10.5912 15.2348 10.5021 14.9673C10.4798 14.8856 10.4872 14.893 10.4352 14.9525C10.346 15.0565 10.294 15.1828 10.3758 15.3017C10.4501 15.4131 10.5615 15.4577 10.6804 15.4205C10.7547 15.3982 10.8215 15.3537 11.0073 15.3462C11.2227 15.3388 11.3342 15.4503 11.4753 15.4205C11.557 15.3982 11.6239 15.3537 11.6611 15.2794C11.7279 15.1531 11.6685 15.0342 11.5645 14.9153C11.5348 14.8856 11.5348 14.9153 11.5348 14.9376Z" fill="#E41819"/>
<path fill-rule="evenodd" clip-rule="evenodd" d="M11.134 14.3285L11.4089 14.6999C11.4757 14.7742 11.4906 14.8634 11.4237 14.9377C11.394 14.9674 11.3643 14.9897 11.3197 14.9971C11.2603 15.0045 11.2008 14.9823 11.134 14.96C11.0671 14.9451 11.0002 14.9302 10.9334 14.9451C10.8814 14.96 10.8219 14.9823 10.7699 14.9897C10.7031 14.9971 10.6436 14.9897 10.5991 14.9228C10.5693 14.8857 10.5619 14.8411 10.5768 14.7891C10.5916 14.7371 10.6213 14.7074 10.6511 14.6628L10.8962 14.3285C10.9111 14.3136 10.9185 14.2987 10.9408 14.3062C11.0151 14.3433 11.0745 14.321 11.1043 14.3062C11.1117 14.3062 11.1265 14.321 11.134 14.3285Z" fill="#E41819"/>
<path d="M11.1709 14.0833C11.1709 14.165 11.1041 14.2393 11.0149 14.2393C10.9332 14.2393 10.8589 14.1724 10.8589 14.0833C10.8589 14.0015 10.9258 13.9272 11.0149 13.9272C11.0966 13.9272 11.1709 14.0015 11.1709 14.0833Z" fill="#FEBE53"/>
<path fill-rule="evenodd" clip-rule="evenodd" d="M10.8658 12.5752C10.851 12.5603 10.851 12.5529 10.8733 12.538C10.9178 12.486 10.955 12.4266 10.9996 12.3523C11.0441 12.4192 11.0887 12.4786 11.1259 12.538C11.1407 12.5603 11.1481 12.5603 11.1333 12.5752C11.0813 12.6198 11.0293 12.6718 10.9996 12.7683C10.9773 12.6718 10.9178 12.6198 10.8658 12.5752Z" fill="#E41819"/>
<path fill-rule="evenodd" clip-rule="evenodd" d="M12.3966 13.4963C12.4041 13.474 12.4115 13.4814 12.4338 13.4889C12.5006 13.5112 12.5675 13.5335 12.6492 13.5557C12.5972 13.6152 12.5527 13.6746 12.5081 13.734C12.4932 13.7563 12.4932 13.7638 12.4709 13.7489C12.4115 13.7118 12.3446 13.6746 12.248 13.682C12.3372 13.6226 12.3669 13.5557 12.3966 13.4963Z" fill="#E41819"/>
<path fill-rule="evenodd" clip-rule="evenodd" d="M9.53611 13.7416C9.51382 13.7564 9.51382 13.749 9.49896 13.7267C9.46182 13.6673 9.41724 13.6153 9.36523 13.5484C9.44696 13.5261 9.51382 13.5038 9.58069 13.4816C9.60298 13.4741 9.6104 13.4667 9.61783 13.489C9.64012 13.5484 9.67727 13.6227 9.75899 13.6747C9.66241 13.6673 9.58812 13.7119 9.53611 13.7416Z" fill="#E41819"/>
<path fill-rule="evenodd" clip-rule="evenodd" d="M11.9953 15.205C12.0176 15.205 12.0176 15.2125 12.0176 15.2422C12.0176 15.3091 12.0176 15.3834 12.0251 15.4651C11.9508 15.4354 11.8765 15.4131 11.8096 15.3982C11.7873 15.3908 11.7799 15.3908 11.7799 15.3685C11.7947 15.3016 11.8096 15.2273 11.7725 15.1382C11.8542 15.1902 11.9285 15.1976 11.9953 15.205Z" fill="#E41819"/>
<path fill-rule="evenodd" clip-rule="evenodd" d="M10.2348 15.3537C10.2422 15.376 10.2348 15.376 10.2051 15.3834C10.1382 15.4057 10.0714 15.428 9.99707 15.4577C10.0045 15.376 10.0045 15.3017 9.99707 15.2348C9.99707 15.2125 9.99707 15.2051 10.0194 15.1977C10.0862 15.1903 10.1605 15.1828 10.2348 15.116C10.2051 15.2125 10.22 15.2943 10.2348 15.3537Z" fill="#E41819"/>
</svg>
