<svg width="50" height="50" viewBox="0 0 50 50" fill="none" xmlns="http://www.w3.org/2000/svg">
<path d="M27.4715 47.9509C27.2804 48.5439 26.625 49.9725 25.0685 49.9725C23.2935 49.9725 22.6927 48.0857 22.6381 48.0048L22.5835 47.8162C22.5835 47.8162 24.1127 47.9509 24.9592 47.9509C25.8058 47.9509 27.2258 47.8701 27.4715 47.8162V47.9509Z" fill="black"/>
<path d="M32.1134 47.0078L32.4684 47.0617C32.0314 48.1668 31.2668 49.4337 29.7376 49.4337C28.263 49.4337 27.5257 48.5981 27.198 48.0051L26.9522 47.8434C26.9522 47.8434 29.5191 47.7625 32.1134 47.0078Z" fill="black"/>
<path d="M18.0511 47.0078L17.6961 47.0617C18.133 48.1668 18.8976 49.4337 20.4541 49.4337C21.9287 49.4337 22.748 48.5442 23.0757 48.0051L23.2395 47.8434C23.2395 47.8434 20.6726 47.7625 18.0511 47.0078Z" fill="black"/>
<path d="M26.2964 48.059C26.0506 48.4094 25.8868 48.3824 25.6137 48.3824C25.4772 48.3824 25.2587 48.4903 25.2587 48.7059C25.2587 48.8676 25.3952 49.0024 25.641 49.0024C26.1598 49.0024 26.5695 48.2746 26.6787 47.9781C26.6787 47.9781 26.9791 47.9781 27.0883 47.9512C27.0883 47.9512 26.5421 49.5684 25.0949 49.5684C23.6476 49.5684 23.0741 47.9512 23.0741 47.9512C23.0741 47.9512 24.2756 48.032 24.9856 48.032C25.641 48.0859 26.1052 48.059 26.2964 48.059Z" fill="#FFF200"/>
<path d="M31.923 47.3313C30.9945 47.5739 30.3119 47.7895 28.728 47.9782C28.728 47.9782 28.7826 48.1399 29.1103 48.113C29.2469 48.113 29.2469 48.086 29.3015 48.0591C29.4107 48.0321 29.5472 48.1399 29.5199 48.3016C29.5199 48.4094 29.4107 48.5712 29.0557 48.5712C28.7007 48.5712 28.2911 48.3016 28.0999 48.0321C28.0999 48.0321 27.8815 48.086 27.663 48.086C27.663 48.086 28.3457 49.0024 29.6565 49.0024C31.1584 49.0563 31.6772 47.7626 31.923 47.3313Z" fill="#FFF200"/>
<path d="M30.9387 48.2476C30.9387 48.032 30.8568 47.8164 30.7476 47.6547C30.2288 47.7625 29.6553 47.8703 28.8088 47.9781C28.8088 48.0051 28.8088 48.032 28.7815 48.059C28.8361 48.1129 28.9453 48.1398 29.1092 48.1398C29.2457 48.1398 29.2457 48.1129 29.3003 48.0859C29.4095 48.059 29.5461 48.1668 29.5188 48.3285C29.5188 48.4363 29.4095 48.5981 29.0545 48.5981C28.9726 48.5981 28.8634 48.5711 28.7815 48.5441C28.8361 48.7059 28.918 48.8406 29.0272 48.9485C29.2184 49.0024 29.4368 49.0293 29.6826 49.0293C30.1468 49.0293 30.5291 48.8945 30.8295 48.7059C30.9114 48.5711 30.9387 48.4094 30.9387 48.2476Z" fill="#FFDF00"/>
<path d="M30.9391 48.2477C30.9391 48.032 30.8572 47.8164 30.7479 47.6547C30.2564 47.7625 29.6556 47.8703 28.8364 47.9781C28.8364 48.0051 28.8091 48.032 28.8091 48.059C28.8637 48.0859 28.973 48.1398 29.1368 48.1129C29.2733 48.1129 29.2733 48.0859 29.328 48.059C29.4372 48.032 29.5737 48.1398 29.5464 48.3016C29.5464 48.4094 29.4372 48.5711 29.0822 48.5711C29.0003 48.5711 28.9183 48.5441 28.8091 48.5172C28.8637 48.6789 28.9457 48.8137 29.0549 48.9215C29.246 48.9754 29.4645 49.0024 29.6829 49.0024C30.1472 49.0024 30.5022 48.8676 30.8026 48.7059C30.8845 48.5981 30.9391 48.4363 30.9391 48.2477Z" fill="#FFE100"/>
<path d="M30.9118 48.2477C30.9118 48.032 30.8299 47.8164 30.7206 47.6547C30.2291 47.7625 29.6556 47.8703 28.8364 47.9781C28.8364 48.0051 28.8091 48.032 28.8091 48.0859C28.8637 48.1129 28.973 48.1398 29.1095 48.1398C29.246 48.1398 29.246 48.1129 29.3006 48.0859C29.4099 48.059 29.5464 48.1668 29.5191 48.3285C29.5191 48.4363 29.4099 48.5981 29.0549 48.5981C28.973 48.5981 28.891 48.5711 28.8091 48.5711C28.8637 48.7328 28.9457 48.8676 29.0549 49.0024C29.246 49.0563 29.4372 49.0563 29.6556 49.0563C30.0926 49.0563 30.4476 48.9485 30.7479 48.7598C30.8572 48.5981 30.9118 48.4363 30.9118 48.2477Z" fill="#FFE300"/>
<path d="M18.2682 47.3313C19.1966 47.5739 19.8793 47.7895 21.4632 47.9782C21.4632 47.9782 21.4086 48.1399 21.0809 48.113C20.9443 48.113 20.9443 48.086 20.8897 48.0591C20.7805 48.0321 20.6439 48.1399 20.6712 48.3016C20.6712 48.4094 20.7805 48.5712 21.1355 48.5712C21.4905 48.5712 21.9001 48.3016 22.0912 48.0321C22.0912 48.0321 22.3097 48.086 22.5282 48.086C22.5282 48.086 21.8455 49.0024 20.5347 49.0024C19.0328 49.0563 18.4866 47.7626 18.2682 47.3313Z" fill="#FFF200"/>
<path d="M24.931 39.7032C29.9556 39.7032 35.5263 36.6574 39.404 32.2639C39.8136 31.7788 40.5509 30.8893 42.244 30.8893C43.937 30.8893 46.2036 32.4257 45.9305 35.2019C45.7393 37.2235 42.7901 41.8057 37.7929 44.6089C32.7683 47.4121 28.1533 48.032 24.931 48.032C21.7087 48.032 17.0938 47.439 12.0692 44.6089C7.04461 41.8057 4.12271 37.2235 3.93156 35.2019C3.65848 32.4257 5.92501 30.8893 7.61807 30.8893C9.31114 30.8893 10.0211 31.7788 10.4581 32.2639C14.363 36.6574 19.9064 39.7032 24.931 39.7032Z" fill="#FFF200"/>
<path d="M24.932 39.5146C27.3623 39.5146 29.9292 38.7868 32.3596 37.5469C34.8992 36.2531 37.3023 34.3663 39.2684 32.1561C39.4869 31.9135 39.7872 31.5631 40.2515 31.2666C40.7157 30.9701 41.3438 30.7275 42.2449 30.7275C42.3268 30.7275 42.4361 30.7275 42.5453 30.7545C43.3645 30.8354 44.2657 31.2127 44.9484 31.9135C45.6311 32.5874 46.1226 33.5577 46.1226 34.7976C46.1226 34.9324 46.1226 35.0941 46.0953 35.2558C45.986 36.4148 45.003 38.3825 43.2826 40.3771C41.9172 41.9404 40.0876 43.5307 37.8757 44.7975C35.3361 46.2261 32.9331 47.0886 30.7212 47.5738C28.5092 48.0859 26.5431 48.2207 24.932 48.2207C23.3208 48.2207 21.3274 48.059 19.1428 47.5738C16.9309 47.0617 14.5278 46.1991 11.9882 44.7975C9.74898 43.5577 7.91938 41.9404 6.58131 40.3771C4.86094 38.3825 3.87787 36.4148 3.76864 35.2558C3.74133 35.0941 3.74133 34.9324 3.74133 34.7976C3.74133 33.5577 4.23287 32.5874 4.91556 31.9135C5.59824 31.2397 6.49939 30.8354 7.31862 30.7545C7.42785 30.7545 7.50977 30.7275 7.619 30.7275C8.52015 30.7275 9.14822 30.9701 9.61245 31.2666C10.0767 31.5631 10.3771 31.9135 10.5955 32.1561C12.5617 34.3663 14.9647 36.2531 17.5043 37.5469C19.9347 38.7868 22.5016 39.5146 24.932 39.5146ZM24.932 39.865C22.447 39.865 19.8255 39.1372 17.3405 37.8434C14.7736 36.5227 12.3159 34.6089 10.3224 32.3717C10.1313 32.1291 9.83091 31.8057 9.42129 31.5362C9.01168 31.2666 8.43822 31.051 7.619 31.051C7.53708 31.051 7.45515 31.051 7.34592 31.051C6.60862 31.1318 5.7894 31.4823 5.16132 32.1022C4.53325 32.7221 4.09633 33.6116 4.09633 34.7437C4.09633 34.8785 4.09633 35.0402 4.12364 35.175C4.23287 36.2801 5.18863 38.1668 6.85439 40.1075C8.19246 41.6439 9.99475 43.2072 12.1794 44.4471C14.6643 45.8487 17.0674 46.6843 19.2247 47.1964C21.382 47.7086 23.3481 47.8433 24.932 47.8433C26.5158 47.8433 28.4819 47.6816 30.6392 47.1964C32.7965 46.6843 35.1996 45.8487 37.6846 44.4471C39.8692 43.2072 41.6715 41.6439 43.0095 40.1075C44.7026 38.1668 45.6311 36.2801 45.7403 35.175C45.7676 35.0402 45.7676 34.8785 45.7676 34.7437C45.7676 33.6116 45.3307 32.7221 44.7026 32.1022C44.0745 31.4823 43.2553 31.1318 42.518 31.051C42.4361 31.051 42.3541 31.051 42.2449 31.051C41.4257 31.051 40.8522 31.2666 40.4426 31.5362C40.033 31.8057 39.7326 32.1291 39.5415 32.3717C37.548 34.6359 35.0904 36.5227 32.5234 37.8434C30.0658 39.1372 27.4443 39.865 24.932 39.865Z" fill="black"/>
<path d="M9.8846 32.6953L9.82998 32.6414C9.42037 32.1832 8.87422 31.5632 7.56346 31.5632C6.79885 31.5632 5.92501 31.9675 5.35155 32.5875C4.91463 33.0457 4.4231 33.8813 4.55963 35.1212C4.72348 36.8193 7.48154 41.2667 12.3696 43.989C16.3019 46.1993 20.5345 47.3313 24.8764 47.3313C29.2183 47.3313 33.451 46.1993 37.3832 43.989C42.2713 41.2397 45.0293 36.8193 45.1932 35.1212C45.3024 33.8813 44.8382 33.0457 44.4013 32.5875C43.8278 31.9675 42.954 31.5632 42.1894 31.5632C40.8786 31.5632 40.3325 32.1832 39.9228 32.6414L39.8682 32.6953C35.6629 37.4123 29.901 40.3502 24.8491 40.3502C19.8518 40.3772 14.09 37.4392 9.8846 32.6953Z" fill="#E22F22"/>
<path d="M41.0701 27.1427C41.0701 24.7708 43.0362 22.8301 45.4393 22.8301C47.8423 22.8301 49.8085 24.7708 49.8085 27.1427C49.8085 29.5147 47.8423 31.4554 45.4393 31.4554C43.0362 31.4554 41.0701 29.5147 41.0701 27.1427Z" fill="#FFF200"/>
<path d="M40.8794 27.1427C40.8794 25.9028 41.3982 24.7707 42.2174 23.9621C43.0367 23.1535 44.1836 22.6414 45.4397 22.6414C46.6959 22.6414 47.8428 23.1535 48.662 23.9621C49.4812 24.7707 50.0001 25.9028 50.0001 27.1427C50.0001 28.3826 49.4812 29.5146 48.662 30.3232C47.8428 31.1319 46.6959 31.644 45.4397 31.644C44.1836 31.644 43.0367 31.1319 42.2174 30.3232C41.3982 29.4877 40.8794 28.3826 40.8794 27.1427ZM41.2617 27.1427C41.2617 28.2747 41.7259 29.3259 42.4905 30.0537C43.2551 30.8084 44.2928 31.2666 45.4397 31.2666C46.5866 31.2666 47.6516 30.8084 48.3889 30.0537C49.1535 29.299 49.6178 28.2747 49.6178 27.1427C49.6178 26.0106 49.1535 24.9594 48.3889 24.2316C47.6243 23.4769 46.5866 23.0187 45.4397 23.0187C44.2928 23.0187 43.2278 23.4769 42.4905 24.2316C41.7259 24.9594 41.2617 25.9837 41.2617 27.1427Z" fill="black"/>
<path d="M0.190704 27.1427C0.190704 24.7708 2.15684 22.8301 4.5599 22.8301C6.96296 22.8301 8.9291 24.7708 8.9291 27.1427C8.9291 29.5147 6.96296 31.4554 4.5599 31.4554C2.12954 31.4554 0.190704 29.5147 0.190704 27.1427Z" fill="#FFF200"/>
<path d="M0 27.1427C0 25.9028 0.518843 24.7707 1.33807 23.9621C2.15729 23.1535 3.30421 22.6414 4.56035 22.6414C5.8165 22.6414 6.96341 23.1535 7.78264 23.9621C8.60186 24.7707 9.12071 25.9028 9.12071 27.1427C9.12071 28.3826 8.60186 29.5146 7.78264 30.3232C6.96341 31.1319 5.8165 31.644 4.56035 31.644C3.30421 31.644 2.15729 31.1319 1.33807 30.3232C0.518843 29.4877 0 28.3826 0 27.1427ZM0.354998 27.1427C0.354998 28.2747 0.819225 29.3259 1.58384 30.0537C2.34845 30.8084 3.38613 31.2666 4.53305 31.2666C5.67996 31.2666 6.74495 30.8084 7.48226 30.0537C8.24687 29.299 8.71109 28.2747 8.71109 27.1427C8.71109 26.0106 8.24687 24.9594 7.48226 24.2316C6.71765 23.4769 5.67996 23.0187 4.53305 23.0187C3.38613 23.0187 2.32114 23.4769 1.58384 24.2316C0.819225 24.9594 0.354998 26.0106 0.354998 27.1427Z" fill="black"/>
<path d="M46.6142 15.5526L46.6415 14.3936C46.9965 14.6631 47.6792 14.6631 48.0615 14.2588C48.2526 14.0701 48.3346 13.7736 48.3346 13.4771C48.3073 13.1267 48.1707 12.7763 47.8976 12.5338C46.423 11.1321 45.1396 9.70358 45.1396 9.70358C45.003 9.48795 44.7846 9.35318 44.6754 9.29927C44.4842 9.21841 43.8561 8.92192 43.3646 9.64967C42.9277 10.2966 42.9823 11.24 43.0642 11.5904L44.4296 13.4502C44.9211 14.0162 46.2592 15.2561 46.6142 15.5526Z" fill="black"/>
<path d="M17.2575 3.558C18.9779 2.99197 20.5618 2.50679 22.6917 2.31812L17.2575 3.558Z" fill="black"/>
<path d="M17.2588 3.5582C18.9791 2.99217 20.563 2.507 22.693 2.31832L23.0207 2.15659C21.8191 1.24016 20.6449 0.593262 19.4707 0.593262C18.7334 0.593262 17.2315 1.07843 16.9038 3.69297L17.2588 3.5582Z" fill="black"/>
<path d="M32.6326 3.5582C30.9122 2.99217 29.3284 2.507 27.1984 2.31832L26.8707 2.15659C28.0723 1.24016 29.2465 0.593262 30.4207 0.593262C31.158 0.593262 32.6599 1.07843 32.9876 3.69297L32.6326 3.5582Z" fill="black"/>
<path d="M23.5108 2.07542C23.8658 2.04846 24.685 2.04846 25.0127 2.04846C25.3404 2.04846 26.2415 2.10237 26.4327 2.10237L23.5108 2.07542Z" fill="black"/>
<path d="M22.9926 2.23718C23.8664 0.592988 24.6583 0 25.0952 0C25.6414 0 26.2968 0.862528 26.7883 1.9946L26.8975 2.23718L26.4606 2.21023C26.1602 2.15632 25.341 2.15632 25.0133 2.15632C24.6856 2.15632 23.9756 2.15632 23.566 2.18327L22.9926 2.23718Z" fill="black"/>
<path d="M21.2732 41.2667L20.5086 44.1508L19.0613 40.6737L18.1329 40.4312L17.0406 44.5012L18.0237 44.7708L18.8156 41.8597L20.2902 45.3637L21.164 45.6063L22.2563 41.5363L21.2732 41.2667Z" fill="#FFF200"/>
<path d="M24.6581 41.7786L23.5385 41.7247L23.3201 45.9296L24.4397 45.9835L24.6581 41.7786Z" fill="#FFF200"/>
<path d="M25.6694 41.7518L25.7513 42.2909L26.9528 42.1291L27.4717 45.741L28.564 45.6062L28.0451 41.9944L29.2193 41.8326L29.1374 41.2666L25.6694 41.7518Z" fill="#FFF200"/>
<path d="M37.2193 40.0267C37.7654 40.9701 37.6562 41.644 36.8097 42.1292L36.4 42.3448L34.8435 39.6763L35.2804 39.4338C36.2635 38.8677 36.837 39.3799 37.2193 40.0267ZM35.0347 38.9216L33.5874 39.7572L35.7174 43.423L37.1373 42.6143C38.6393 41.7518 38.7758 40.485 38.175 39.4607C37.4923 38.2208 36.3454 38.1939 35.0347 38.9216Z" fill="#FFF200"/>
<path d="M32.332 44.097L31.8951 42.8032L33.1785 42.3989L32.9874 41.8598L31.7312 42.2641L31.3762 41.159L32.6597 40.7547L32.4958 40.2156L30.1201 40.9703L31.4308 44.9864L34.0524 44.1509L33.8612 43.6118L32.332 44.097Z" fill="#FFF200"/>
<path d="M16.1391 39.4605L14.8829 41.6977C14.5006 42.3716 14.1183 42.8028 13.463 42.4255C12.8349 42.0751 12.9714 41.563 13.3537 40.8622L14.6099 38.598L13.5995 38.032L12.2614 40.4039C11.5241 41.7247 12.4526 42.5333 13.1626 42.9107C13.9272 43.3419 15.0741 43.6384 15.7841 42.3446L17.1222 39.9457L16.1391 39.4605Z" fill="#FFF200"/>
<path d="M15.4007 14.7707V34.4472L24.931 40.4848L34.4613 34.4472V14.7977C34.1609 14.5282 33.5329 13.9352 33.014 13.6387H16.7934C16.3565 13.9352 15.5372 14.636 15.4007 14.7707Z" fill="#FFF200"/>
<path d="M15.5923 14.7709V34.3664L24.9315 40.2963L34.2979 34.3664V14.7978H34.6802L34.6529 34.4473V34.5551L34.571 34.609L25.0407 40.6467L24.9315 40.7276L24.8495 40.6467L15.3192 34.609L15.21 34.5551V14.7709H15.5923Z" fill="black"/>
<path d="M34.38 14.9326C34.298 14.8517 34.3526 14.9056 34.2707 14.8248C33.943 14.5283 33.3969 14.0431 32.96 13.8005L33.1511 13.504C33.6153 13.7736 34.1615 14.2857 34.5165 14.5822C34.5165 14.5822 34.4619 14.5552 34.6257 14.69L34.38 14.9326Z" fill="black"/>
<path d="M33.0426 13.8275H16.7946V13.4771H33.0426V13.8275Z" fill="black"/>
<path d="M16.8764 13.8005C16.6853 13.9353 16.4122 14.1509 16.1664 14.3396C15.866 14.5822 15.5929 14.7978 15.5383 14.8787L15.2653 14.6361C15.3472 14.5552 15.6203 14.3127 15.9206 14.0701C16.1937 13.8544 16.4668 13.6388 16.6579 13.504L16.8764 13.8005Z" fill="black"/>
<path d="M25.6152 23.2074C25.5606 23.1805 25.3148 23.3692 25.2056 23.5309C25.0963 23.6926 25.069 23.9082 25.2056 23.9891C25.3694 24.07 25.5606 23.9622 25.5879 23.6926C25.6425 23.5578 25.6971 23.2344 25.6152 23.2074ZM23.7856 23.6926C23.8129 23.9622 24.0313 24.07 24.1679 23.9891C24.3317 23.9082 24.2771 23.6926 24.1952 23.5309C24.0859 23.3692 23.8675 23.1805 23.7856 23.2074C23.7309 23.2344 23.7583 23.5578 23.7856 23.6926ZM24.7413 26.3341C25.069 25.822 25.2056 25.2829 25.2056 25.2829H24.2771C24.2771 25.2559 24.4409 25.822 24.7413 26.3341ZM24.9052 22.4258L25.6425 21.1589L26.2159 22.4258H27.1717C26.5982 22.9649 26.3525 23.7735 26.3525 24.3126V24.9055C26.3525 25.1481 26.2159 25.5524 26.2159 25.5524C26.2159 25.5524 27.0352 26.1724 27.1717 26.2802C27.2263 26.3341 27.2809 26.3611 27.2536 26.4689C27.199 26.6576 26.6255 26.9001 26.5709 26.954C26.4344 27.0619 26.4071 27.1427 26.4344 27.2505C26.4617 27.3584 26.5709 27.3853 26.7894 27.3045C27.0079 27.2236 27.4448 27.008 27.8271 26.8462C28.2094 26.6845 28.7009 26.7115 28.7009 26.7115V26.0107H27.2809V23.7196L27.0352 23.3153L27.6632 22.2101L28.2913 23.3153L28.0455 23.7196V24.9055H28.7828V23.7196L28.5371 23.3153L29.1651 22.2101L29.7932 23.3153L29.5474 23.7196V24.9055H30.2848V23.7196L30.039 23.3153L30.6671 22.2101L31.2951 23.3153L31.0494 23.7196V26.0107H29.6021V27.0619C29.9298 27.3584 30.2301 28.0592 30.2301 28.4635C30.2301 28.8678 29.9571 29.0565 29.9571 29.0565C30.039 29.3799 30.039 29.5147 29.9844 29.8112C29.9571 30.1077 29.5748 30.5659 29.5748 30.5659V36.0106C29.5748 36.388 28.7009 36.334 28.7009 36.0376V30.7007C28.2094 30.1616 26.8713 29.7573 26.8713 29.7573C26.3798 30.2424 26.0794 31.078 26.0794 31.078C26.2979 31.2128 26.6255 31.078 26.7348 30.9432C26.8713 30.8085 27.1171 30.7546 27.2536 30.8624C27.3902 30.9432 27.4448 30.9972 27.3902 31.2128C27.3355 31.4284 27.2536 31.7788 27.2536 32.0214C27.2536 32.264 27.554 32.2101 27.7725 32.237C28.2094 32.264 28.2913 32.7492 28.2367 33.0187C28.2094 33.2882 28.0728 33.8543 28.0728 34.2047C28.0728 34.5551 28.1002 34.9055 28.1275 35.1211C28.1548 35.3098 28.2367 35.5254 28.2094 35.768C28.1821 36.1184 27.9636 36.1723 27.7452 35.9567C27.5267 35.7411 24.5229 32.5605 24.5229 32.5605C24.3317 33.2074 25.1509 34.3125 25.424 34.6359C25.6971 34.9863 25.6698 35.2289 25.4513 35.4446C25.2056 35.6872 24.7686 35.795 24.6867 36.0106C24.6048 36.2262 24.9052 36.8731 25.5332 37.6817C26.1613 38.4904 24.8233 39.0294 24.004 39.1912C23.1848 39.3529 23.1848 38.7869 23.2394 38.4904C23.294 38.1939 23.294 38.0052 23.2667 37.7357C23.2394 37.4661 22.9936 37.0888 22.666 36.6575C22.311 36.1993 22.311 35.795 22.4748 34.7707C22.6113 33.7465 22.584 33.0726 22.584 33.0726C22.584 33.0726 22.229 33.0996 21.7102 33.0726C21.1914 33.0457 20.7544 32.7492 20.7271 31.5093C20.6998 30.2694 20.6725 27.2775 20.5633 26.981C20.4814 26.6845 20.1537 26.6036 19.9898 26.5767C19.8533 26.5497 19.826 26.3341 19.9898 26.2532C20.3721 26.0646 20.809 25.6063 20.6452 25.3368C20.4814 25.0403 19.826 25.1212 19.3617 25.3368C18.9248 25.5524 18.4333 26.0107 18.3241 26.1454C18.2148 26.2802 18.1056 26.2802 18.1329 26.1454C18.1329 26.0107 18.051 25.3368 17.9964 25.0942C17.9418 24.8516 17.7233 24.3934 17.6414 24.2856C17.5595 24.1778 17.6414 24.1239 17.7506 24.1778C17.8598 24.2317 18.1329 24.3395 18.3787 24.3934C18.6244 24.4743 18.8702 24.3395 18.9794 24.0969C19.0887 23.8543 19.3344 23.3422 19.4437 23.1266C19.5529 22.9109 19.7441 22.9379 19.9079 22.9918C20.0717 23.0188 20.2083 23.1266 20.3448 23.1805C20.4814 23.2344 20.6179 23.2344 20.6452 23.1535C20.6998 23.0727 20.7544 23.0457 20.8364 22.884C20.9183 22.6953 21.0275 22.7762 21.0275 22.857C21.4644 25.4177 22.584 25.5255 22.584 25.5255C22.4202 25.9567 22.0106 26.6306 21.9287 26.7923C21.8194 26.9541 21.7921 27.1966 21.7648 27.3584C21.7375 27.547 21.8194 29.2182 21.956 29.8381C22.0652 30.4581 22.4748 30.2155 22.584 30.0268C22.6933 29.8381 23.0756 29.0565 23.0756 29.0565C23.0756 29.0565 23.1848 28.8408 23.1848 28.6522C23.1848 28.4635 22.8844 28.0861 22.8025 27.9513C22.7206 27.8435 22.4748 27.6009 22.4748 27.008C22.4748 26.415 23.021 26.0107 23.2121 25.8489C23.4033 25.6872 23.4033 25.4716 23.376 25.3368C23.294 24.8786 22.8025 23.9082 22.5567 23.5309C22.311 23.1535 21.8467 22.4527 21.8467 22.4527H22.8298L23.4579 21.1589L24.1406 22.4527L24.9052 22.4258ZM28.7555 28.8947V28.167C28.7555 28.167 28.5644 27.8705 28.0728 27.8705C27.5813 27.8705 27.3082 28.0053 27.3082 28.14C27.2809 28.3287 27.7178 28.8947 28.7555 28.8947Z" fill="#E22F22"/>
<path d="M16.1391 19.6763H33.7524V20.8622H16.1391V19.6763Z" fill="#E22F22"/>
<path d="M16.1391 19.0835V14.3666H33.7524V19.0835H16.1391Z" fill="#E22F22"/>
<path d="M30.2834 19.2182V18.4096H28.9999V17.8975H30.0376V15.6064H29.0819L28.7542 14.9865L28.4265 15.6064H27.4707V17.8975H28.5357V18.4096H26.0234V17.8975H27.0611V15.6064H26.1053L25.7776 14.9865L25.45 15.6064H24.4942V17.8975H25.5319V18.4096H22.9923V17.8975H24.03V15.6064H23.0742L22.7465 14.9865L22.4188 15.6064H21.4631V17.8975H22.5007V18.4096H20.48L18.4865 17.9514L18.8962 19.2182H30.2834Z" fill="#FFF200"/>
<path d="M19.1697 17.8437L20.5351 18.1671L21.245 16.1725V15.6604L19.1697 17.8437Z" fill="#FFF200"/>
<path d="M22.4197 2.21021C20.3443 2.39889 19.0335 2.83015 17.3405 3.39619C17.477 2.66843 17.6408 2.23716 17.9412 1.83285C17.9139 2.21021 18.2143 2.61452 18.8424 2.61452C19.4431 2.61452 19.7981 2.26412 19.7981 2.04849C19.7981 1.83285 19.6616 1.53636 19.3339 1.53636C19.0062 1.53636 18.9243 1.77895 18.9516 1.85981C18.9789 1.94067 18.897 1.96762 18.8151 1.99458C18.7331 2.02153 18.4601 1.88676 18.542 1.56331C18.6512 1.21291 19.0881 0.99728 19.607 0.99728C19.6343 0.99728 20.8631 0.943372 22.4197 2.21021Z" fill="#FFF200"/>
<path d="M32.5509 3.39622C30.8578 2.83019 29.5197 2.39892 27.4171 2.21024C28.3728 1.53639 29.274 0.997314 30.257 0.997314C30.7759 0.997314 31.2128 1.18599 31.322 1.56335C31.4039 1.8868 31.1582 2.02157 31.0489 1.99461C30.967 1.96766 30.8851 1.9407 30.9124 1.85984C30.9397 1.77898 30.8578 1.53639 30.5301 1.53639C30.2024 1.53639 30.0659 1.83289 30.0659 2.04852C30.0659 2.26415 30.4209 2.61455 31.0216 2.61455C31.6224 2.61455 31.9501 2.21024 31.9228 1.83289C32.2232 2.26415 32.4143 2.69542 32.5509 3.39622Z" fill="#FFF200"/>
<path d="M23.7027 1.83305C23.6481 1.91391 23.5935 1.99478 23.5389 2.07564C23.8939 2.04868 24.6858 2.04868 24.9862 2.04868C25.3139 2.04868 26.1877 2.10259 26.3789 2.10259C26.0785 1.40179 25.4777 0.404489 25.0681 0.404489C24.9862 0.404489 24.795 0.350581 24.4673 0.754891C24.4673 0.754891 24.4127 0.916615 24.6312 0.889661C24.9043 0.835753 25.0135 1.13225 24.9862 1.26702C24.9589 1.56351 24.5766 1.88696 24.2216 1.88696C23.8393 1.88696 23.7027 1.83305 23.7027 1.83305Z" fill="#FFF200"/>
<path d="M5.51545 13.4232L6.88083 11.5634C6.96275 11.213 7.01737 10.2965 6.58045 9.6227C6.08891 8.89494 5.46084 9.19143 5.26969 9.2723C5.16046 9.3262 4.942 9.48793 4.80546 9.67661C4.80546 9.67661 3.4947 11.1321 2.02009 12.5337C1.82894 12.7224 1.58317 13.0998 1.55587 13.4502C1.52856 13.7467 1.6651 14.0701 1.82894 14.2588C2.23855 14.69 2.92124 14.6631 3.27624 14.3936L3.30355 15.5526C3.74047 15.2561 5.05123 14.0162 5.51545 13.4232Z" fill="black"/>
<path d="M24.9323 10.7276C32.7695 10.7276 37.2479 18.0052 38.231 19.272C39.9514 21.5631 42.0814 23.396 44.539 22.803C48.1436 21.8865 47.9525 16.6305 47.9525 16.6305C47.0786 16.0106 45.604 15.2289 42.9006 11.4553C40.2518 7.73568 34.2441 2.23706 24.9323 2.23706C15.6204 2.23706 9.61275 7.73568 6.96392 11.4553C4.26048 15.2289 2.78588 15.9836 1.91204 16.6035C1.91204 16.6035 1.72088 21.8865 5.32547 22.776C7.78315 23.396 9.91313 21.5361 11.6335 19.245C12.6166 18.0052 17.095 10.7276 24.9323 10.7276Z" fill="#FFF200"/>
<path d="M24.9311 10.539C32.2222 10.539 36.6187 16.7384 38.066 18.733C38.2025 18.9217 38.3118 19.0564 38.3664 19.1643C39.2129 20.2963 40.1687 21.3206 41.2064 21.9675C42.2167 22.6144 43.309 22.9109 44.4833 22.6144C47.6782 21.8057 47.7602 17.3583 47.7602 16.6845C47.6782 16.6306 47.6236 16.5767 47.5417 16.5228C46.6406 15.9028 45.166 14.9055 42.7356 11.5093C41.2064 9.37995 38.5848 6.6576 34.8437 4.74386C32.113 3.34225 28.8088 2.37191 24.9311 2.37191C21.0534 2.39886 17.7492 3.36921 15.0185 4.77082C11.2774 6.68455 8.65583 9.40691 7.12661 11.5363C4.69624 14.9325 3.22164 15.9298 2.32049 16.5497C2.23857 16.6036 2.15665 16.6575 2.10203 16.7114C2.10203 17.3853 2.18396 21.8327 5.37893 22.6413C6.55315 22.9378 7.64545 22.6413 8.65583 21.9944C9.69352 21.3475 10.6493 20.3233 11.4958 19.1912C11.5777 19.1103 11.6597 18.9486 11.7962 18.7599C13.2435 16.7384 17.64 10.539 24.9311 10.539ZM24.9311 10.9163C17.8312 10.9163 13.4893 16.981 12.0966 18.9756C11.96 19.1373 11.8781 19.299 11.7962 19.4068C10.9224 20.5659 9.93928 21.6171 8.87429 22.2909C7.78199 22.9917 6.58046 23.3152 5.29701 22.9917C1.55588 22.0483 1.74704 16.6575 1.74704 16.6306V16.5497L1.82896 16.4958C1.93819 16.4149 2.02011 16.361 2.12934 16.2802C3.00318 15.6602 4.42317 14.6899 6.82623 11.3206C8.38276 9.16432 11.0589 6.38806 14.8546 4.44737C17.6127 3.01881 20.9988 2.04846 24.9311 2.04846C28.8634 2.04846 32.2495 3.04576 35.0076 4.44737C38.8306 6.38806 41.5067 9.16432 43.0633 11.3206C45.4663 14.6629 46.8863 15.6333 47.7602 16.2532C47.8694 16.3341 47.9786 16.388 48.0605 16.4689L48.1425 16.5228V16.6036C48.1425 16.6306 48.3336 22.0214 44.5925 22.9648C43.309 23.2882 42.1075 22.9648 41.0152 22.264C39.9502 21.5901 38.9672 20.5389 38.0933 19.3799C38.0114 19.2721 37.9022 19.1103 37.7929 18.9486C36.3729 16.981 32.0584 10.9163 24.9311 10.9163Z" fill="black"/>
<path d="M24.9317 10.0537C32.4959 10.0537 37.0017 16.3879 38.4763 18.4633C38.5855 18.6251 38.6947 18.7868 38.7766 18.8677C40.7701 21.5091 42.5997 22.5604 44.3474 22.1291C46.887 21.4822 47.1873 18.059 47.242 17.0078V16.9809L47.2147 16.9539C46.3135 16.334 44.8389 15.3367 42.3266 11.8327C40.8247 9.73025 35.1721 2.91089 24.9317 2.91089C14.6914 2.91089 9.03878 9.73025 7.53687 11.8327C5.05189 15.3097 3.49536 16.3609 2.64883 16.9539L2.62152 16.9809V17.0078C2.64883 18.059 2.97652 21.5091 5.48881 22.156C7.23649 22.5873 9.06609 21.5361 11.0595 18.8946C11.1415 18.7868 11.2234 18.652 11.3599 18.4903C12.8618 16.3879 17.3676 10.0537 24.9317 10.0537Z" fill="#E22F22"/>
<path d="M8.65668 12.965L7.86477 13.8814L9.33937 16.9002L6.1717 15.876L5.48901 16.6846L8.76591 19.38L9.25745 18.814L6.93631 16.9002L10.0221 17.8975L10.3497 17.4932L8.87514 14.5822L11.1963 16.4959L11.9336 15.6604L8.65668 12.965Z" fill="#FFF200"/>
<path d="M12.7802 12.3181L12.0429 13.0997L11.2783 11.6442L12.7802 12.3181ZM11.0599 10.4313L10.3226 11.2129L12.3706 15.2291L12.8622 14.69L12.316 13.6388L13.2991 12.5876L14.4187 13.0458L15.2379 12.1833L11.0599 10.4313Z" fill="#FFF200"/>
<path d="M16.0305 6.60368L17.6416 9.13736L14.0916 7.81661L13.2997 8.30178L15.5389 11.8867L16.4128 11.3476L14.8016 8.81391L18.4062 10.1347L19.1708 9.64948L16.9043 6.09155L16.0305 6.60368Z" fill="#FFF200"/>
<path d="M29.5189 8.67918L29.9559 7.38538L31.212 7.81665L31.4032 7.27757L30.147 6.87326L30.5293 5.76814L31.8128 6.19941L32.0039 5.68728L29.6555 4.87866L28.2628 8.8409L30.857 9.73038L31.0482 9.1913L29.5189 8.67918Z" fill="#FFF200"/>
<path d="M36.8106 8.40967L36.4283 8.81398L37.3294 9.6226L34.8445 12.318L35.691 13.0727L38.1487 10.3504L39.0225 11.132L39.4048 10.7277L36.8106 8.40967Z" fill="#FFF200"/>
<path d="M38.04 14.7168L39.0777 13.8543L39.9242 14.8516L40.3611 14.5012L39.5146 13.4769L40.4157 12.7492L41.2896 13.7734L41.7265 13.423L40.1426 11.5363L36.8658 14.2317L38.6407 16.3071L39.0777 15.9567L38.04 14.7168Z" fill="#FFF200"/>
<path d="M42.9551 15.795C43.2555 16.1184 43.2555 16.4958 42.9005 16.8192C42.5728 17.1157 42.1359 17.0618 41.8082 16.7114L41.6171 16.4958L42.682 15.5524L42.9551 15.795ZM42.409 17.8704C42.409 17.8704 43.0644 18.1939 43.7743 17.547C44.3751 17.0079 44.184 16.2801 43.5559 15.5793L42.409 14.3125L39.2413 17.1157L39.9786 17.9243L41.2347 16.8192L41.6171 17.2235L40.8251 19.0025L41.7809 19.7572L42.409 17.8704Z" fill="#FFF200"/>
<path d="M26.3781 4.52827L26.3507 6.25333L24.685 6.19942L24.7123 4.50132L23.5927 4.47437L23.5108 8.67919L24.6304 8.70614L24.6577 6.76546L26.3507 6.79241L26.2961 8.7331H27.4157L27.4977 4.55523L26.3781 4.52827Z" fill="#FFF200"/>
<path d="M32.4414 10.7817C33.2333 11.2399 34.1071 11.186 34.5168 10.5121C34.8171 10.0539 34.8171 9.67656 34.4621 8.97575C34.3802 8.78707 34.2437 8.62535 34.1618 8.46363C33.9979 8.16713 33.8614 7.92455 33.9979 7.70891C34.1345 7.46633 34.4895 7.43937 34.7898 7.62805C35.1175 7.81673 35.2541 8.14018 35.3087 8.35581L35.8275 8.14018C35.6637 7.73587 35.4452 7.35851 34.8991 7.03506C33.9979 6.49598 33.2333 6.63075 32.9329 7.14288C32.6325 7.65501 32.7145 8.08627 32.9329 8.51753C32.9329 8.51753 33.0695 8.76012 33.1787 8.92184C33.3698 9.27225 33.6156 9.67656 33.4518 9.97305C33.2606 10.2965 32.9056 10.3774 32.5506 10.1617C32.1137 9.89219 32.0045 9.56874 31.9225 9.27225L31.3491 9.51483C31.5129 9.9461 31.8133 10.4043 32.4414 10.7817Z" fill="#FFF200"/>
<path d="M20.8362 4.7437C19.4435 5.0402 18.5151 6.03749 18.8428 7.41215C19.0066 8.13991 19.6893 9.51456 21.792 9.0833C22.3654 8.97548 22.6931 8.73289 22.9935 8.46335L22.6112 8.03209C22.4747 8.19381 22.2562 8.4364 21.7647 8.51726C20.7543 8.7329 20.1262 7.92428 19.9897 7.19652C19.7712 6.14531 20.372 5.41755 21.082 5.28278C21.5735 5.17497 21.8739 5.30974 22.065 5.3906L22.2016 4.85152C21.8466 4.68979 21.4643 4.60893 20.8362 4.7437Z" fill="#FFF200"/>
<path d="M43.4184 11.725C43.3638 11.4824 43.2819 10.4042 43.6915 9.83818C44.0738 9.32606 44.4015 9.48778 44.5926 9.56864C44.6746 9.5956 44.9203 9.75732 44.9749 10.0808C45.0023 10.2425 44.9476 10.512 44.8111 10.6738C44.538 10.9972 43.9646 11.2398 43.9646 11.2398C43.9646 11.2398 44.7292 12.6953 46.313 14.1508V15.1481C44.1284 13.0727 43.4184 11.725 43.4184 11.725Z" fill="#FFF200"/>
<path d="M44.5115 11.4284C44.73 11.8058 45.2761 12.6952 46.6688 13.9621C46.8873 14.1777 47.4608 14.3394 47.7884 13.989C47.925 13.8543 47.9796 13.6656 47.9796 13.423C47.9523 13.1535 47.7884 12.857 47.6519 12.7222C47.3788 12.4796 46.2046 11.3206 45.3308 10.3772C45.3035 10.5389 45.1669 10.8354 45.1669 10.8354C45.0304 11.0241 44.8938 11.2397 44.5115 11.4284Z" fill="#FFF200"/>
<path d="M3.68607 15.0942V14.1508C5.29721 12.6953 6.03451 11.2397 6.03451 11.2397C6.03451 11.2397 5.43374 11.0511 5.18798 10.7007C5.05144 10.512 4.99682 10.2694 5.02413 10.1077C5.07875 9.78423 5.32451 9.62251 5.40644 9.59555C5.59759 9.51469 5.92528 9.32601 6.30758 9.86509C6.7172 10.4311 6.60797 11.4823 6.55335 11.7249C6.55335 11.7249 5.81605 13.0187 3.68607 15.0942Z" fill="#FFF200"/>
<path d="M5.4617 11.4285C5.24324 11.8059 4.69709 12.6954 3.30441 13.9622C3.08595 14.1779 2.51249 14.3665 2.1848 14.0161C2.04827 13.8814 1.99365 13.6927 1.99365 13.4501C2.02096 13.1806 2.1575 12.8841 2.32134 12.7493C2.59442 12.5067 3.76864 11.3477 4.64248 10.4043C4.66979 10.566 4.80632 10.8625 4.80632 10.8625C4.91555 11.0242 5.05209 11.2399 5.4617 11.4285Z" fill="#FFF200"/>
<path d="M1.01065 27.1695C1.01065 25.2289 2.59449 23.6655 4.56063 23.6655C6.52676 23.6655 8.1106 25.2289 8.1106 27.1695C8.1106 29.1102 6.52676 30.6736 4.56063 30.6736C2.59449 30.6736 1.01065 29.1102 1.01065 27.1695Z" fill="#E22F22"/>
<path d="M6.44433 24.6361C6.49894 24.69 6.66279 24.7978 6.66279 24.7978C6.96317 25.0673 7.23625 25.3908 7.40009 25.7681C7.59124 26.2533 6.99048 26.9541 6.79933 27.1428C5.9801 27.8975 5.46126 27.8975 5.16088 27.9244C4.86049 27.9784 4.66934 27.7897 4.69665 27.574C4.72396 26.9271 5.18818 25.822 5.29741 25.6334C5.37934 25.4986 5.51587 25.4177 5.51587 25.4177C5.81626 25.3369 6.11664 25.2021 6.28048 25.0404C6.44433 24.8786 6.44433 24.6361 6.44433 24.6361ZM3.49512 24.1778C3.82281 24.07 4.17781 24.0161 4.5328 24.0161C5.07895 24.0161 5.6251 24.1239 6.06202 24.3935C6.17125 24.4743 6.19856 24.5552 6.19856 24.69C6.19856 25.0943 5.54318 25.229 5.10626 25.229C4.66934 25.229 4.12319 25.0673 3.74089 24.9326C3.35858 24.8247 3.27666 24.5821 3.27666 24.5013C3.30396 24.4204 3.35858 24.2048 3.49512 24.1778ZM2.07513 29.2182C1.63821 28.787 1.31052 28.0053 1.31052 27.1697C1.31052 26.8463 1.36513 26.5498 1.44705 26.2533C1.44705 26.2533 1.52898 26.1185 1.58359 26.2263C1.63821 26.3072 1.69282 26.3881 1.77474 26.4959C1.82936 26.6037 2.18436 26.8732 2.15705 27.0619C2.04782 27.8436 2.15705 28.8678 2.18436 29.0296C2.23897 29.2452 2.18436 29.3261 2.07513 29.2182ZM2.18436 26.5767C2.02051 26.4959 1.82936 26.0916 1.77474 25.9838C1.72013 25.9029 1.72013 25.6603 1.80205 25.5525C2.07513 25.0943 2.43012 24.69 2.92166 24.4743C2.97627 24.4474 3.0582 24.4474 3.0582 24.5821C3.0582 24.663 3.0855 24.7708 3.0855 24.8517C3.0855 24.9325 3.11281 25.0673 3.03089 25.2021C2.92166 25.3099 2.51205 26.0646 2.40282 26.4959C2.3482 26.5498 2.32089 26.6576 2.18436 26.5767ZM4.61473 30.3503C4.58742 30.3503 4.56011 30.3503 4.5328 30.3503C3.93204 30.3503 3.30396 30.1347 2.92166 29.919C2.51205 29.7034 2.37551 28.7061 2.37551 28.194C2.37551 26.5498 3.0582 25.5525 3.16743 25.3638C3.27666 25.1751 3.52242 25.1482 3.71358 25.2021C3.90473 25.256 3.95935 25.283 4.17781 25.3369C4.28704 25.3638 4.5328 25.4177 4.69665 25.4447C4.86049 25.4716 5.05165 25.5255 4.94242 25.822C4.83319 26.1455 4.45088 26.9002 4.42357 27.7897C4.39627 28.5983 4.5055 29.4069 4.69665 29.8921C4.77857 30.2425 4.77857 30.3503 4.61473 30.3503ZM5.43395 30.2155C5.2428 30.2694 5.16088 30.1347 5.07895 30.0538C4.75126 29.6765 4.66934 28.6792 4.66934 28.5444C4.66934 28.4096 4.72396 28.2748 4.80588 28.2748C5.5978 28.2479 6.17125 28.0323 6.6901 27.601C7.20894 27.1697 7.4274 26.6846 7.48201 26.6037C7.53663 26.5228 7.64586 26.5228 7.64586 26.6576C7.67317 26.7654 7.70047 26.9811 7.70047 27.1697C7.75509 28.6253 6.77202 29.8112 5.43395 30.2155Z" fill="#FFF200"/>
<path d="M49.018 27.1695C49.018 25.2289 47.4342 23.6655 45.4681 23.6655C43.5019 23.6655 41.9181 25.2289 41.9181 27.1695C41.9181 29.1102 43.5019 30.6736 45.4681 30.6736C47.4342 30.6736 49.018 29.1102 49.018 27.1695Z" fill="#E22F22"/>
<path d="M43.7187 25.0404C43.8826 25.2021 44.1556 25.3369 44.4833 25.4177C44.4833 25.4177 44.6199 25.4986 44.7291 25.6334C44.8656 25.822 45.3299 26.9271 45.3299 27.574C45.3299 27.7897 45.1387 27.9784 44.8656 27.9244C44.5653 27.8705 44.0464 27.8975 43.2272 27.1428C43.036 26.9811 42.408 26.2533 42.6264 25.7681C42.7903 25.3908 43.0633 25.0673 43.3637 24.7978C43.3637 24.7978 43.5276 24.663 43.5822 24.6361C43.5549 24.6361 43.5549 24.8786 43.7187 25.0404ZM46.7225 24.5013C46.7225 24.6091 46.6406 24.8247 46.2583 24.9325C45.876 25.0404 45.3299 25.229 44.8929 25.229C44.456 25.229 43.8006 25.0943 43.8006 24.69C43.8006 24.5552 43.8279 24.4743 43.9372 24.3935C44.3741 24.1239 44.9202 24.0161 45.4664 24.0161C45.8214 24.0161 46.1764 24.07 46.5041 24.1778C46.6406 24.2048 46.7225 24.4204 46.7225 24.5013ZM47.8148 29.0565C47.8422 28.8948 47.9514 27.8436 47.8422 27.0889C47.8148 26.8732 48.1698 26.6307 48.2245 26.5228C48.2791 26.415 48.361 26.3342 48.4156 26.2533C48.4975 26.1455 48.5521 26.2803 48.5521 26.2803C48.6341 26.5767 48.6887 26.8732 48.6887 27.1967C48.6887 28.0323 48.361 28.8139 47.9241 29.2452C47.8422 29.3261 47.7875 29.2452 47.8148 29.0565ZM47.651 26.4689C47.5418 26.0377 47.1048 25.3099 47.0229 25.1751C46.9137 25.0673 46.9683 24.9056 46.9683 24.8247C46.9683 24.7439 46.9956 24.6361 46.9956 24.5552C46.9956 24.4204 47.0775 24.4204 47.1322 24.4474C47.6237 24.663 47.9787 25.0943 48.2518 25.5255C48.3064 25.6334 48.3064 25.8759 48.2791 25.9568C48.2245 26.0646 48.0333 26.4689 47.8695 26.5498C47.6783 26.6576 47.651 26.5498 47.651 26.4689ZM45.3572 29.919C45.5483 29.4339 45.6576 28.6252 45.6029 27.8166C45.5756 26.9271 45.1933 26.1724 45.0841 25.849C44.9749 25.5255 45.166 25.4986 45.3299 25.4716C45.4937 25.4447 45.7395 25.3908 45.8487 25.3638C46.0672 25.3099 46.1218 25.256 46.3129 25.229C46.5041 25.1751 46.7499 25.2021 46.8591 25.3908C46.9683 25.5794 47.651 26.5767 47.651 28.2209C47.651 28.7331 47.5145 29.7304 47.1048 29.946C46.7225 30.1616 46.0672 30.3773 45.4937 30.3773C45.4664 30.3773 45.4391 30.3773 45.4391 30.3773C45.2206 30.3503 45.2206 30.2425 45.3572 29.919ZM42.2714 27.1697C42.2714 26.9541 42.326 26.7654 42.326 26.6576C42.3533 26.5228 42.4626 26.4959 42.4899 26.6037C42.5445 26.6846 42.763 27.1697 43.2818 27.601C43.8006 28.0323 44.3741 28.2479 45.166 28.2748C45.2479 28.2748 45.3026 28.4096 45.3026 28.5444C45.3026 28.6792 45.2206 29.6765 44.8929 30.0538C44.811 30.1616 44.7291 30.2694 44.5379 30.2155C43.2545 29.8112 42.2714 28.6252 42.2714 27.1697Z" fill="#FFF200"/>
<path d="M41.9439 27.1695C41.9439 26.1992 42.3535 25.3097 42.9816 24.6898C43.637 24.0429 44.5108 23.6655 45.4939 23.6655C46.477 23.6655 47.3781 24.0698 48.0062 24.6898C48.6616 25.3367 49.0439 26.1992 49.0439 27.1695C49.0439 28.1399 48.6343 29.0294 48.0062 29.6493C47.3508 30.2962 46.477 30.6736 45.4939 30.6736C44.5108 30.6736 43.6097 30.2693 42.9816 29.6493C42.3262 29.0024 41.9439 28.1399 41.9439 27.1695ZM41.9712 27.1695C41.9712 28.1399 42.3535 29.0024 43.0089 29.6224C43.637 30.2423 44.5381 30.6466 45.4939 30.6466C46.4497 30.6466 47.3508 30.2693 47.9789 29.6224C48.6069 29.0024 49.0166 28.1129 49.0166 27.1695C49.0166 26.1992 48.6343 25.3367 47.9789 24.7167C47.3508 24.0968 46.4497 23.6925 45.4939 23.6925C44.5108 23.6925 43.637 24.0698 43.0089 24.7167C42.3808 25.3367 41.9712 26.1992 41.9712 27.1695Z" fill="#FFE600"/>
</svg>
