<svg width="22" height="18" viewBox="0 0 22 18" fill="none" xmlns="http://www.w3.org/2000/svg">
<path d="M17.3636 1H4.63636C2.63136 1 1 2.63136 1 4.63636V10.5455C1 10.5468 1 10.5482 1 10.55V13.7273C1 15.7323 2.63136 17.3636 4.63636 17.3636H17.3636C19.3686 17.3636 21 15.7323 21 13.7273V10.5455V4.63636C21 2.63136 19.3686 1 17.3636 1ZM8.27273 13.2727V11.4545H13.7273V13.2727H8.27273ZM4.63636 13.2727C4.00455 13.2727 3.42409 13.055 2.96136 12.6932L5.04091 10.6136C5.67136 11.1382 6.48091 11.4545 7.36364 11.4545V13.2727H4.63636ZM8.27273 3.72727V1.90909H13.7273V3.72727H8.27273ZM14.6364 4.63636C16.1405 4.63636 17.3636 5.85955 17.3636 7.36364V7.81818C17.3636 9.32227 16.1405 10.5455 14.6364 10.5455H7.36364C5.85955 10.5455 4.63636 9.32227 4.63636 7.81818V7.36364C4.63636 5.85955 5.85955 4.63636 7.36364 4.63636H14.6364ZM19.6532 3.16C19.9291 3.58591 20.0909 4.09227 20.0909 4.63636V6.90909H18.2414C18.1636 6.28864 17.9286 5.71773 17.5786 5.235L19.6532 3.16ZM2.34636 12.0223C2.07136 11.5968 1.91 11.0923 1.90909 10.55V7.81818H3.72727C3.72727 8.61364 3.98682 9.34773 4.42182 9.94727L2.34636 12.0223ZM3.75864 6.90909H1.90909V4.63636C1.90909 4.09227 2.07091 3.58591 2.34682 3.16L4.42136 5.23455C4.07091 5.71773 3.83636 6.28864 3.75864 6.90909ZM14.6364 11.4545C15.5186 11.4545 16.3286 11.1382 16.9591 10.6132L19.0391 12.6932C18.5759 13.055 17.9955 13.2727 17.3636 13.2727H14.6364V11.4545ZM20.0909 10.5455C20.0909 11.0895 19.9291 11.5959 19.6532 12.0218L17.5782 9.94682C18.0132 9.34773 18.2727 8.61364 18.2727 7.81818H20.0909V10.5455ZM19.0391 2.48864L16.9591 4.56864C16.3286 4.04364 15.5186 3.72727 14.6364 3.72727V1.90909H17.3636C17.9955 1.90909 18.5759 2.12682 19.0391 2.48864ZM7.36364 1.90909V3.72727C6.48136 3.72727 5.67136 4.04364 5.04091 4.56864L2.96091 2.48864C3.42409 2.12682 4.00455 1.90909 4.63636 1.90909H7.36364ZM20.0909 13.7273C20.0909 15.2314 18.8677 16.4545 17.3636 16.4545H4.63636C3.13227 16.4545 1.90909 15.2314 1.90909 13.7273V12.9427C2.57591 13.7005 3.55 14.1818 4.63636 14.1818H17.3636C18.45 14.1818 19.4241 13.7005 20.0909 12.9427V13.7273Z" fill="#161B46" stroke="#161B46" stroke-width="0.1"/>
</svg>
