<svg width="21" height="15" viewBox="0 0 21 15" fill="none" xmlns="http://www.w3.org/2000/svg">
<path d="M7.21144 0C3.23721 0 0 3.23724 0 7.21147C0 11.1857 3.23721 14.4229 7.21144 14.4229C11.0134 14.4229 14.1321 11.4576 14.3961 7.72127L20.192 5.54799V0H10.096V1.44231H7.93258V0H7.21144ZM11.5383 1.44231H18.7497V4.54802L13.5722 6.49031H13.5693L12.9806 6.71132V7.21138C12.9806 10.4061 10.4062 12.9805 7.21144 12.9805C4.01669 12.9805 1.44229 10.4061 1.44229 7.21138C1.44229 4.26146 3.63873 1.84519 6.4903 1.49147V2.88445H11.5383V1.44231ZM2.88458 7.21147C2.88458 9.59259 4.83032 11.5383 7.21144 11.5383C9.59256 11.5383 11.5383 9.59259 11.5383 7.21147H10.096C10.096 8.81313 8.81309 10.096 7.21144 10.096C5.60979 10.096 4.32686 8.81313 4.32686 7.21147H2.88458Z" fill="#161B46"/>
</svg>
